<?xml version="1.0" encoding="UTF-8"?>
<!DOCTYPE svg PUBLIC "-//W3C//DTD SVG 1.1//EN" "http://www.w3.org/Graphics/SVG/1.1/DTD/svg11.dtd">
<svg xmlns="http://www.w3.org/2000/svg" version="1.1" width="512px" height="512px" style="shape-rendering:geometricPrecision; text-rendering:geometricPrecision; image-rendering:optimizeQuality; fill-rule:evenodd; clip-rule:evenodd" xmlns:xlink="http://www.w3.org/1999/xlink">
<g><path style="opacity:1" fill="#429df4" d="M 22.5,-0.5 C 33.8333,-0.5 45.1667,-0.5 56.5,-0.5C 43.9804,3.85631 36.1471,12.523 33,25.5C 32.3333,178.5 32.3333,331.5 33,484.5C 35.7095,498.038 43.5429,507.038 56.5,511.5C 45.1667,511.5 33.8333,511.5 22.5,511.5C 11.1667,507.5 3.5,499.833 -0.5,488.5C -0.5,333.167 -0.5,177.833 -0.5,22.5C 3.5,11.1667 11.1667,3.5 22.5,-0.5 Z"/></g>
<g><path style="opacity:1" fill="#1680f5" d="M 56.5,-0.5 C 188.5,-0.5 320.5,-0.5 452.5,-0.5C 451.071,118.862 428.237,233.862 384,344.5C 360.894,400.322 330.394,451.322 292.5,497.5C 292.5,438.167 292.5,378.833 292.5,319.5C 314.007,319.831 335.34,319.497 356.5,318.5C 361.877,318.288 365.377,315.622 367,310.5C 367.667,291.5 367.667,272.5 367,253.5C 365.195,249.857 362.362,247.524 358.5,246.5C 336.673,245.503 314.673,245.169 292.5,245.5C 292.5,229.167 292.5,212.833 292.5,196.5C 295.823,179.676 305.823,169.176 322.5,165C 334.833,164.667 347.167,164.333 359.5,164C 363.333,162.833 365.833,160.333 367,156.5C 367.667,137.167 367.667,117.833 367,98.5C 364.736,95.5665 361.902,93.3999 358.5,92C 339.086,90.8804 319.752,91.5471 300.5,94C 255.805,106.23 228.972,135.063 220,180.5C 219.502,183.482 219.335,186.482 219.5,189.5C 218.503,207.993 218.17,226.659 218.5,245.5C 196.327,245.169 174.327,245.503 152.5,246.5C 148.638,247.524 145.805,249.857 144,253.5C 143.333,272.833 143.333,292.167 144,311.5C 145.922,315.597 149.088,317.93 153.5,318.5C 174.994,319.497 196.66,319.831 218.5,319.5C 218.5,383.5 218.5,447.5 218.5,511.5C 164.5,511.5 110.5,511.5 56.5,511.5C 43.5429,507.038 35.7095,498.038 33,484.5C 32.3333,331.5 32.3333,178.5 33,25.5C 36.1471,12.523 43.9804,3.85631 56.5,-0.5 Z"/></g>
<g><path style="opacity:1" fill="#4b60dc" d="M 452.5,-0.5 C 464.5,-0.5 476.5,-0.5 488.5,-0.5C 499.833,3.5 507.5,11.1667 511.5,22.5C 511.5,177.833 511.5,333.167 511.5,488.5C 507.5,499.833 499.833,507.5 488.5,511.5C 423.167,511.5 357.833,511.5 292.5,511.5C 292.5,506.833 292.5,502.167 292.5,497.5C 330.394,451.322 360.894,400.322 384,344.5C 428.237,233.862 451.071,118.862 452.5,-0.5 Z"/></g>
<g><path style="opacity:1" fill="#ddeefe" d="M 292.5,196.5 C 291.503,212.992 291.17,229.658 291.5,246.5C 313.833,246.5 336.167,246.5 358.5,246.5C 362.362,247.524 365.195,249.857 367,253.5C 367.667,272.5 367.667,291.5 367,310.5C 365.377,315.622 361.877,318.288 356.5,318.5C 334.833,318.5 313.167,318.5 291.5,318.5C 291.5,382.833 291.5,447.167 291.5,511.5C 267.5,511.5 243.5,511.5 219.5,511.5C 219.5,447.167 219.5,382.833 219.5,318.5C 197.5,318.5 175.5,318.5 153.5,318.5C 149.088,317.93 145.922,315.597 144,311.5C 143.333,292.167 143.333,272.833 144,253.5C 145.805,249.857 148.638,247.524 152.5,246.5C 174.833,246.5 197.167,246.5 219.5,246.5C 219.5,227.5 219.5,208.5 219.5,189.5C 219.335,186.482 219.502,183.482 220,180.5C 228.972,135.063 255.805,106.23 300.5,94C 319.752,91.5471 339.086,90.8804 358.5,92C 361.902,93.3999 364.736,95.5665 367,98.5C 367.667,117.833 367.667,137.167 367,156.5C 365.833,160.333 363.333,162.833 359.5,164C 347.167,164.333 334.833,164.667 322.5,165C 305.823,169.176 295.823,179.676 292.5,196.5 Z"/></g>
<g><path style="opacity:1" fill="#5ea8f9" d="M 219.5,189.5 C 219.5,208.5 219.5,227.5 219.5,246.5C 197.167,246.5 174.833,246.5 152.5,246.5C 174.327,245.503 196.327,245.169 218.5,245.5C 218.17,226.659 218.503,207.993 219.5,189.5 Z"/></g>
<g><path style="opacity:1" fill="#60a9f9" d="M 292.5,196.5 C 292.5,212.833 292.5,229.167 292.5,245.5C 314.673,245.169 336.673,245.503 358.5,246.5C 336.167,246.5 313.833,246.5 291.5,246.5C 291.17,229.658 291.503,212.992 292.5,196.5 Z"/></g>
<g><path style="opacity:1" fill="#4a9df8" d="M 153.5,318.5 C 175.5,318.5 197.5,318.5 219.5,318.5C 219.5,382.833 219.5,447.167 219.5,511.5C 219.167,511.5 218.833,511.5 218.5,511.5C 218.5,447.5 218.5,383.5 218.5,319.5C 196.66,319.831 174.994,319.497 153.5,318.5 Z"/></g>
<g><path style="opacity:1" fill="#4d9cf7" d="M 356.5,318.5 C 335.34,319.497 314.007,319.831 292.5,319.5C 292.5,378.833 292.5,438.167 292.5,497.5C 292.5,502.167 292.5,506.833 292.5,511.5C 292.167,511.5 291.833,511.5 291.5,511.5C 291.5,447.167 291.5,382.833 291.5,318.5C 313.167,318.5 334.833,318.5 356.5,318.5 Z"/></g>
</svg>
