<?xml version="1.0" encoding="UTF-8"?>
<!DOCTYPE svg PUBLIC "-//W3C//DTD SVG 1.1//EN" "http://www.w3.org/Graphics/SVG/1.1/DTD/svg11.dtd">
<svg xmlns="http://www.w3.org/2000/svg" version="1.1" width="512px" height="512px" style="shape-rendering:geometricPrecision; text-rendering:geometricPrecision; image-rendering:optimizeQuality; fill-rule:evenodd; clip-rule:evenodd" xmlns:xlink="http://www.w3.org/1999/xlink">
<g><path style="opacity:1" fill="#f47079" d="M 119.5,0.5 C 119.5,0.166667 119.5,-0.166667 119.5,-0.5C 128.5,-0.5 137.5,-0.5 146.5,-0.5C 150.375,4.06237 154.375,8.56237 158.5,13C 153.167,13.3333 147.833,13.6667 142.5,14C 160.362,34.5253 178.196,55.0253 196,75.5C 200.08,76.3002 204.247,76.8002 208.5,77C 206.942,77.21 205.609,77.71 204.5,78.5C 195.651,78.1736 186.984,78.507 178.5,79.5C 177.5,79.5 176.5,79.5 175.5,79.5C 172.634,78.1526 170.134,76.1526 168,73.5C 151.611,54.4519 135.278,35.4519 119,16.5C 118.833,16.1667 118.667,15.8333 118.5,15.5C 122.711,14.0978 127.044,13.2644 131.5,13C 127.948,8.28388 123.948,4.11721 119.5,0.5 Z"/></g>
<g><path style="opacity:1" fill="#f16f7f" d="M 146.5,-0.5 C 158.167,-0.5 169.833,-0.5 181.5,-0.5C 184.954,4.12599 188.621,8.62599 192.5,13C 187.167,13.3333 181.833,13.6667 176.5,14C 193.636,34.4065 211.136,54.5732 229,74.5C 231.166,76.1213 233.666,76.9546 236.5,77C 232.644,77.1773 228.977,77.6773 225.5,78.5C 218.5,78.5 211.5,78.5 204.5,78.5C 205.609,77.71 206.942,77.21 208.5,77C 204.247,76.8002 200.08,76.3002 196,75.5C 178.196,55.0253 160.362,34.5253 142.5,14C 147.833,13.6667 153.167,13.3333 158.5,13C 154.375,8.56237 150.375,4.06237 146.5,-0.5 Z"/></g>
<g><path style="opacity:1" fill="#ea6b8c" d="M 211.5,-0.5 C 220.5,-0.5 229.5,-0.5 238.5,-0.5C 241.954,4.12599 245.621,8.62599 249.5,13C 243.5,13.3333 237.5,13.6667 231.5,14C 250.114,34.1039 268.114,54.6039 285.5,75.5C 289.745,76.065 293.745,77.065 297.5,78.5C 285.5,78.5 273.5,78.5 261.5,78.5C 262.952,77.6981 264.618,77.1981 266.5,77C 264.5,76.6667 262.5,76.3333 260.5,76C 249.243,65.0781 239.076,53.2447 230,40.5C 221.503,32.0347 213.336,23.2014 205.5,14C 211.5,13.6667 217.5,13.3333 223.5,13C 218.921,8.92616 214.921,4.42616 211.5,-0.5 Z"/></g>
<g><path style="opacity:1" fill="#e46899" d="M 269.5,-0.5 C 279.5,-0.5 289.5,-0.5 299.5,-0.5C 302.954,4.12599 306.621,8.62599 310.5,13C 304.167,13.3333 297.833,13.6667 291.5,14C 311.359,37.685 331.692,60.8517 352.5,83.5C 345.585,82.1817 338.585,81.1817 331.5,80.5C 327.833,79.8333 324.167,79.1667 320.5,78.5C 321.873,78.6567 323.207,78.49 324.5,78C 319.17,78.661 315.003,76.8277 312,72.5C 298.049,55.2146 283.382,38.548 268,22.5C 266.311,19.3333 264.478,16.3333 262.5,13.5C 268.509,13.6662 274.509,13.4995 280.5,13C 276.597,8.6069 272.931,4.1069 269.5,-0.5 Z"/></g>
<g><path style="opacity:1" fill="#e1669f" d="M 299.5,-0.5 C 309.833,-0.5 320.167,-0.5 330.5,-0.5C 333.931,4.1069 337.597,8.6069 341.5,13C 334.809,13.1691 328.142,13.6691 321.5,14.5C 349.398,46.8882 377.398,79.0548 405.5,111C 404.944,111.383 404.611,111.883 404.5,112.5C 390.151,97.6549 372.818,87.9883 352.5,83.5C 331.692,60.8517 311.359,37.685 291.5,14C 297.833,13.6667 304.167,13.3333 310.5,13C 306.621,8.62599 302.954,4.12599 299.5,-0.5 Z"/></g>
<g><path style="opacity:1" fill="#de65a5" d="M 330.5,-0.5 C 338.167,-0.5 345.833,-0.5 353.5,-0.5C 354.609,0.28997 355.942,0.78997 357.5,1C 360.934,5.18964 364.6,9.18964 368.5,13C 366.19,13.4966 363.857,13.6633 361.5,13.5C 356.489,13.3341 351.489,13.5007 346.5,14C 357.88,25.4319 368.38,37.5986 378,50.5C 388.198,61.2781 398.198,72.2781 408,83.5C 413.244,91.746 419.577,99.0794 427,105.5C 436.185,116.571 445.352,127.571 454.5,138.5C 455.313,144.815 455.979,151.148 456.5,157.5C 456.5,160.5 456.5,163.5 456.5,166.5C 455.732,167.263 455.232,168.263 455,169.5C 442.061,153.391 428.561,137.724 414.5,122.5C 413.893,122.624 413.56,122.957 413.5,123.5C 410.271,120.057 407.271,116.39 404.5,112.5C 404.611,111.883 404.944,111.383 405.5,111C 377.398,79.0548 349.398,46.8882 321.5,14.5C 328.142,13.6691 334.809,13.1691 341.5,13C 337.597,8.6069 333.931,4.1069 330.5,-0.5 Z"/></g>
<g><path style="opacity:0.063" fill="#fefffe" d="M 420.5,-0.5 C 420.833,-0.5 421.167,-0.5 421.5,-0.5C 421.315,0.170143 420.981,0.170143 420.5,-0.5 Z"/></g>
<g><path style="opacity:1" fill="#f77273" d="M 119.5,0.5 C 123.948,4.11721 127.948,8.28388 131.5,13C 127.044,13.2644 122.711,14.0978 118.5,15.5C 118.667,15.8333 118.833,16.1667 119,16.5C 135.278,35.4519 151.611,54.4519 168,73.5C 170.134,76.1526 172.634,78.1526 175.5,79.5C 167.045,79.5986 158.712,80.5986 150.5,82.5C 147,82.1982 144.166,80.5316 142,77.5C 125.481,57.8322 108.481,38.4989 91,19.5C 90.4092,18.5165 90.7425,17.8499 92,17.5C 95.6945,16.263 99.1945,15.4296 102.5,15C 99.2615,11.2724 96.2615,7.43908 93.5,3.5C 101.911,1.49069 110.578,0.490691 119.5,0.5 Z"/></g>
<g><path style="opacity:1" fill="#d761b1" d="M 400.5,0.5 C 408.204,0.760424 415.538,1.42709 422.5,2.5C 424.885,9.60418 427.552,16.6042 430.5,23.5C 431.5,26.8333 432.5,30.1667 433.5,33.5C 436.107,39.9879 438.107,46.6546 439.5,53.5C 442.936,65.4974 445.936,77.4974 448.5,89.5C 448.704,92.5176 449.037,95.5176 449.5,98.5C 425.365,70.8589 401.365,43.0256 377.5,15C 384.833,14.6667 392.167,14.3333 399.5,14C 395.833,9.66667 392.167,5.33333 388.5,1C 392.486,0.501152 396.486,0.334485 400.5,0.5 Z"/></g>
<g><path style="opacity:0.99" fill="#cb39a3" d="M 422.5,2.5 C 427.029,3.45609 431.363,4.78943 435.5,6.5C 458.934,34.4413 482.6,62.2747 506.5,90C 507.094,90.4643 507.761,90.631 508.5,90.5C 509.588,95.6052 510.588,100.605 511.5,105.5C 511.5,106.167 511.5,106.833 511.5,107.5C 504.733,99.6439 497.733,91.9772 490.5,84.5C 481.583,62.4055 467.249,44.5722 447.5,31C 441.891,28.4067 436.225,25.9067 430.5,23.5C 427.552,16.6042 424.885,9.60418 422.5,2.5 Z"/></g>
<g><path style="opacity:1" fill="#fa746d" d="M 93.5,3.5 C 96.2615,7.43908 99.2615,11.2724 102.5,15C 99.1945,15.4296 95.6945,16.263 92,17.5C 90.7425,17.8499 90.4092,18.5165 91,19.5C 108.481,38.4989 125.481,57.8322 142,77.5C 144.166,80.5316 147,82.1982 150.5,82.5C 142.33,83.8913 134.33,85.8913 126.5,88.5C 125.791,87.596 124.791,87.2627 123.5,87.5C 123.649,86.448 123.483,85.448 123,84.5C 104.962,64.7969 87.2949,44.7969 70,24.5C 70.1927,22.8126 71.1927,21.4792 73,20.5C 73.3333,20.8333 73.6667,21.1667 74,21.5C 75.6477,20.283 77.481,19.4497 79.5,19C 76.462,16.2974 73.7954,13.2974 71.5,10C 70.9056,9.53566 70.2389,9.36899 69.5,9.5C 77.0482,6.11871 85.0482,4.11871 93.5,3.5 Z"/></g>
<g><path style="opacity:0.987" fill="#c937a7" d="M 435.5,6.5 C 475.59,20.608 499.923,48.608 508.5,90.5C 507.761,90.631 507.094,90.4643 506.5,90C 482.6,62.2747 458.934,34.4413 435.5,6.5 Z"/></g>
<g><path style="opacity:1" fill="#fd7567" d="M 69.5,9.5 C 70.2389,9.36899 70.9056,9.53566 71.5,10C 73.7954,13.2974 76.462,16.2974 79.5,19C 77.481,19.4497 75.6477,20.283 74,21.5C 73.6667,21.1667 73.3333,20.8333 73,20.5C 71.1927,21.4792 70.1927,22.8126 70,24.5C 87.2949,44.7969 104.962,64.7969 123,84.5C 123.483,85.448 123.649,86.448 123.5,87.5C 124.791,87.2627 125.791,87.596 126.5,88.5C 120.075,91.5472 113.741,94.8805 107.5,98.5C 104.266,97.8776 101.433,95.8776 99,92.5C 94.4242,87.0133 90.0909,81.3467 86,75.5C 73.1667,61.6963 60.6667,47.5297 48.5,33C 51.0292,30.9715 53.6959,29.1381 56.5,27.5C 54.1152,24.7883 51.7819,22.1216 49.5,19.5C 55.3015,14.5992 61.9682,11.2659 69.5,9.5 Z"/></g>
<g><path style="opacity:1" fill="#ed6d87" d="M 181.5,-0.5 C 191.5,-0.5 201.5,-0.5 211.5,-0.5C 214.921,4.42616 218.921,8.92616 223.5,13C 217.5,13.3333 211.5,13.6667 205.5,14C 213.336,23.2014 221.503,32.0347 230,40.5C 239.076,53.2447 249.243,65.0781 260.5,76C 262.5,76.3333 264.5,76.6667 266.5,77C 264.618,77.1981 262.952,77.6981 261.5,78.5C 249.5,78.5 237.5,78.5 225.5,78.5C 228.977,77.6773 232.644,77.1773 236.5,77C 233.666,76.9546 231.166,76.1213 229,74.5C 211.136,54.5732 193.636,34.4065 176.5,14C 181.833,13.6667 187.167,13.3333 192.5,13C 188.621,8.62599 184.954,4.12599 181.5,-0.5 Z"/></g>
<g><path style="opacity:1" fill="#e86a91" d="M 238.5,-0.5 C 248.833,-0.5 259.167,-0.5 269.5,-0.5C 272.931,4.1069 276.597,8.6069 280.5,13C 274.509,13.4995 268.509,13.6662 262.5,13.5C 258.486,13.3345 254.486,13.5012 250.5,14C 266.99,33.4885 283.823,52.6552 301,71.5C 302.193,73.8864 303.36,76.2198 304.5,78.5C 302.167,78.5 299.833,78.5 297.5,78.5C 293.745,77.065 289.745,76.065 285.5,75.5C 268.114,54.6039 250.114,34.1039 231.5,14C 237.5,13.6667 243.5,13.3333 249.5,13C 245.621,8.62599 241.954,4.12599 238.5,-0.5 Z"/></g>
<g><path style="opacity:1" fill="#e66894" d="M 262.5,13.5 C 264.478,16.3333 266.311,19.3333 268,22.5C 283.382,38.548 298.049,55.2146 312,72.5C 315.003,76.8277 319.17,78.661 324.5,78C 323.207,78.49 321.873,78.6567 320.5,78.5C 315.167,78.5 309.833,78.5 304.5,78.5C 303.36,76.2198 302.193,73.8864 301,71.5C 283.823,52.6552 266.99,33.4885 250.5,14C 254.486,13.5012 258.486,13.3345 262.5,13.5 Z"/></g>
<g><path style="opacity:1" fill="#dc63a9" d="M 361.5,13.5 C 392.181,48.6395 422.515,83.9728 452.5,119.5C 453.341,121.379 453.675,123.379 453.5,125.5C 453.927,129.824 454.261,134.158 454.5,138.5C 445.352,127.571 436.185,116.571 427,105.5C 419.577,99.0794 413.244,91.746 408,83.5C 398.198,72.2781 388.198,61.2781 378,50.5C 368.38,37.5986 357.88,25.4319 346.5,14C 351.489,13.5007 356.489,13.3341 361.5,13.5 Z"/></g>
<g><path style="opacity:1" fill="#da63ac" d="M 353.5,-0.5 C 369.167,-0.5 384.833,-0.5 400.5,-0.5C 400.5,-0.166667 400.5,0.166667 400.5,0.5C 396.486,0.334485 392.486,0.501152 388.5,1C 392.167,5.33333 395.833,9.66667 399.5,14C 392.167,14.3333 384.833,14.6667 377.5,15C 401.365,43.0256 425.365,70.8589 449.5,98.5C 451.148,105.405 452.148,112.405 452.5,119.5C 422.515,83.9728 392.181,48.6395 361.5,13.5C 363.857,13.6633 366.19,13.4966 368.5,13C 364.6,9.18964 360.934,5.18964 357.5,1C 355.942,0.78997 354.609,0.28997 353.5,-0.5 Z"/></g>
<g><path style="opacity:1" fill="#ff7965" d="M 49.5,19.5 C 51.7819,22.1216 54.1152,24.7883 56.5,27.5C 53.6959,29.1381 51.0292,30.9715 48.5,33C 60.6667,47.5297 73.1667,61.6963 86,75.5C 90.0909,81.3467 94.4242,87.0133 99,92.5C 101.433,95.8776 104.266,97.8776 107.5,98.5C 102.564,102.096 97.8974,106.096 93.5,110.5C 74.8774,88.0395 56.0441,65.7062 37,43.5C 37.8931,40.5638 39.7264,38.0638 42.5,36C 40.5854,33.6004 38.9188,31.1004 37.5,28.5C 40.9289,24.7376 44.9289,21.7376 49.5,19.5 Z"/></g>
<g><path style="opacity:1" fill="#c937a7" d="M 430.5,23.5 C 436.225,25.9067 441.891,28.4067 447.5,31C 467.249,44.5722 481.583,62.4055 490.5,84.5C 491.498,89.8299 492.498,95.1633 493.5,100.5C 493.607,102.379 493.107,102.712 492,101.5C 488,96.8333 484,92.1667 480,87.5C 479.667,86.5 479.333,85.5 479,84.5C 463.232,67.9068 448.066,50.9068 433.5,33.5C 432.5,30.1667 431.5,26.8333 430.5,23.5 Z"/></g>
<g><path style="opacity:1" fill="#ff8066" d="M 37.5,28.5 C 38.9188,31.1004 40.5854,33.6004 42.5,36C 39.7264,38.0638 37.8931,40.5638 37,43.5C 56.0441,65.7062 74.8774,88.0395 93.5,110.5C 89.8027,115.191 86.136,119.858 82.5,124.5C 79.3084,122.828 76.475,120.495 74,117.5C 68.072,109.568 61.4053,102.235 54,95.5C 44.7887,82.6155 34.4554,70.6155 23,59.5C 22.3333,58.5 22.3333,57.5 23,56.5C 24.87,54.5947 26.37,52.4281 27.5,50C 25.0771,48.4293 23.7438,46.2626 23.5,43.5C 27.4608,37.8714 32.1275,32.8714 37.5,28.5 Z"/></g>
<g><path style="opacity:1" fill="#cb39a4" d="M 433.5,33.5 C 448.066,50.9068 463.232,67.9068 479,84.5C 479.333,85.5 479.667,86.5 480,87.5C 484,92.1667 488,96.8333 492,101.5C 493.107,102.712 493.607,102.379 493.5,100.5C 494.9,106.026 495.734,111.693 496,117.5C 477.819,95.381 458.986,74.0476 439.5,53.5C 438.107,46.6546 436.107,39.9879 433.5,33.5 Z"/></g>
<g><path style="opacity:1" fill="#ff8667" d="M 23.5,43.5 C 23.7438,46.2626 25.0771,48.4293 27.5,50C 26.37,52.4281 24.87,54.5947 23,56.5C 22.3333,57.5 22.3333,58.5 23,59.5C 34.4554,70.6155 44.7887,82.6155 54,95.5C 61.4053,102.235 68.072,109.568 74,117.5C 76.475,120.495 79.3084,122.828 82.5,124.5C 79.4673,130.565 76.4673,136.565 73.5,142.5C 63.518,133.552 54.6847,123.552 47,112.5C 34.5996,100.268 23.0996,87.2681 12.5,73.5C 13.5382,70.6612 14.8715,67.9946 16.5,65.5C 14.585,63.9288 13.585,61.9288 13.5,59.5C 15.8355,53.4855 19.1688,48.1522 23.5,43.5 Z"/></g>
<g><path style="opacity:1" fill="#cd3a9f" d="M 439.5,53.5 C 458.986,74.0476 477.819,95.381 496,117.5C 495.734,111.693 494.9,106.026 493.5,100.5C 492.498,95.1633 491.498,89.8299 490.5,84.5C 497.733,91.9772 504.733,99.6439 511.5,107.5C 511.5,116.5 511.5,125.5 511.5,134.5C 506.781,129.423 502.281,124.09 498,118.5C 497.723,126.536 497.057,134.536 496,142.5C 480.618,124.384 464.785,106.717 448.5,89.5C 445.936,77.4974 442.936,65.4974 439.5,53.5 Z"/></g>
<g><path style="opacity:1" fill="#ff8c68" d="M 13.5,59.5 C 13.585,61.9288 14.585,63.9288 16.5,65.5C 14.8715,67.9946 13.5382,70.6612 12.5,73.5C 23.0996,87.2681 34.5996,100.268 47,112.5C 54.6847,123.552 63.518,133.552 73.5,142.5C 71.4282,149.052 69.7615,155.719 68.5,162.5C 48.0376,138.986 27.5376,115.319 7,91.5C 7.41684,86.7181 7.25017,81.7181 6.5,76.5C 7.48624,70.2049 9.81957,64.5382 13.5,59.5 Z"/></g>
<g><path style="opacity:1" fill="#fce8ec" d="M 178.5,79.5 C 186.984,78.507 195.651,78.1736 204.5,78.5C 211.5,78.5 218.5,78.5 225.5,78.5C 237.5,78.5 249.5,78.5 261.5,78.5C 273.5,78.5 285.5,78.5 297.5,78.5C 299.833,78.5 302.167,78.5 304.5,78.5C 309.833,78.5 315.167,78.5 320.5,78.5C 324.167,79.1667 327.833,79.8333 331.5,80.5C 280.508,79.5725 229.508,79.2392 178.5,79.5 Z"/></g>
<g><path style="opacity:1" fill="#ff9269" d="M 6.5,76.5 C 7.25017,81.7181 7.41684,86.7181 7,91.5C 27.5376,115.319 48.0376,138.986 68.5,162.5C 66.2102,173.34 64.8768,184.34 64.5,195.5C 63.1802,192.101 63.1802,188.601 64.5,185C 43.6401,160.81 22.8068,136.644 2,112.5C 1.50137,108.848 1.3347,105.182 1.5,101.5C 1.78395,92.7739 3.45061,84.4406 6.5,76.5 Z"/></g>
<g><path style="opacity:1" fill="#fffefe" d="M 175.5,79.5 C 176.5,79.5 177.5,79.5 178.5,79.5C 229.508,79.2392 280.508,79.5725 331.5,80.5C 338.585,81.1817 345.585,82.1817 352.5,83.5C 372.818,87.9883 390.151,97.6549 404.5,112.5C 407.271,116.39 410.271,120.057 413.5,123.5C 423.295,139.772 428.962,157.439 430.5,176.5C 430.5,177.167 430.5,177.833 430.5,178.5C 431.4,229.827 431.734,281.16 431.5,332.5C 431.5,335.833 431.5,339.167 431.5,342.5C 430.745,348.873 429.745,355.206 428.5,361.5C 426.816,368.9 424.816,376.233 422.5,383.5C 419.563,389.041 416.896,394.708 414.5,400.5C 410.864,405.142 407.197,409.809 403.5,414.5C 388.725,428.222 371.392,437.222 351.5,441.5C 345.52,442.664 339.52,443.664 333.5,444.5C 331.833,444.5 330.167,444.5 328.5,444.5C 277.842,445.438 227.176,445.771 176.5,445.5C 173.167,445.5 169.833,445.5 166.5,445.5C 159.913,444.19 153.246,443.19 146.5,442.5C 138.251,439.862 129.917,437.196 121.5,434.5C 98.4822,423.151 82.4822,405.484 73.5,381.5C 69.3084,367.667 66.6417,353.667 65.5,339.5C 65.6323,336.43 65.299,333.43 64.5,330.5C 64.5,313.833 64.5,297.167 64.5,280.5C 64.5,275.5 64.5,270.5 64.5,265.5C 64.5,250.833 64.5,236.167 64.5,221.5C 64.5,218.167 64.5,214.833 64.5,211.5C 64.5,206.167 64.5,200.833 64.5,195.5C 64.8768,184.34 66.2102,173.34 68.5,162.5C 69.7615,155.719 71.4282,149.052 73.5,142.5C 76.4673,136.565 79.4673,130.565 82.5,124.5C 86.136,119.858 89.8027,115.191 93.5,110.5C 97.8974,106.096 102.564,102.096 107.5,98.5C 113.741,94.8805 120.075,91.5472 126.5,88.5C 134.33,85.8913 142.33,83.8913 150.5,82.5C 158.712,80.5986 167.045,79.5986 175.5,79.5 Z"/></g>
<g><path style="opacity:0.997" fill="#d13b99" d="M 448.5,89.5 C 464.785,106.717 480.618,124.384 496,142.5C 497.057,134.536 497.723,126.536 498,118.5C 502.281,124.09 506.781,129.423 511.5,134.5C 511.5,144.5 511.5,154.5 511.5,164.5C 506.866,159.695 502.366,154.695 498,149.5C 497.902,157.577 497.235,165.577 496,173.5C 487.846,164.499 480.179,155.165 473,145.5C 466.27,138.938 459.77,132.271 453.5,125.5C 453.675,123.379 453.341,121.379 452.5,119.5C 452.148,112.405 451.148,105.405 449.5,98.5C 449.037,95.5176 448.704,92.5176 448.5,89.5 Z"/></g>
<g><path style="opacity:1" fill="#ff986a" d="M 1.5,101.5 C 1.3347,105.182 1.50137,108.848 2,112.5C 22.8068,136.644 43.6401,160.81 64.5,185C 63.1802,188.601 63.1802,192.101 64.5,195.5C 64.5,200.833 64.5,206.167 64.5,211.5C 58.0762,206.577 52.9096,200.577 49,193.5C 31.7685,175.287 15.2685,156.621 -0.5,137.5C -0.5,128.5 -0.5,119.5 -0.5,110.5C 0.166667,107.5 0.833333,104.5 1.5,101.5 Z"/></g>
<g><path style="opacity:1" fill="#f4727a" d="M 181.5,112.5 C 200.167,112.5 218.833,112.5 237.5,112.5C 235.393,113.468 233.059,113.802 230.5,113.5C 230.351,114.552 230.517,115.552 231,116.5C 240.688,127.851 250.688,138.851 261,149.5C 266.411,157.914 272.911,165.414 280.5,172C 279.552,172.483 278.552,172.649 277.5,172.5C 264.054,169.085 250.388,167.752 236.5,168.5C 244.323,167.671 252.323,167.171 260.5,167C 256.049,166.87 251.716,166.204 247.5,165C 234.439,148.598 220.605,132.764 206,117.5C 204.148,115.77 204.314,114.604 206.5,114C 199.508,113.5 192.508,113.334 185.5,113.5C 177.486,113.568 169.486,113.901 161.5,114.5C 167.937,112.961 174.604,112.294 181.5,112.5 Z"/></g>
<g><path style="opacity:1" fill="#f77173" d="M 185.5,113.5 C 192.508,113.334 199.508,113.5 206.5,114C 204.314,114.604 204.148,115.77 206,117.5C 220.605,132.764 234.439,148.598 247.5,165C 251.716,166.204 256.049,166.87 260.5,167C 252.323,167.171 244.323,167.671 236.5,168.5C 234.139,168.674 231.806,169.007 229.5,169.5C 226.986,168.674 224.319,168.508 221.5,169C 205.793,151.629 190.46,133.962 175.5,116C 178.834,114.916 182.168,114.082 185.5,113.5 Z"/></g>
<g><path style="opacity:1" fill="#f16f80" d="M 237.5,112.5 C 248.172,112.333 258.839,112.5 269.5,113C 267.5,113.333 265.5,113.667 263.5,114C 265.041,115.579 266.208,117.413 267,119.5C 310.457,168.611 353.457,217.945 396,267.5C 396.419,268.672 397.085,269.672 398,270.5C 398.179,274.025 398.679,277.359 399.5,280.5C 399.5,285.167 399.5,289.833 399.5,294.5C 399.825,302.352 399.492,310.018 398.5,317.5C 398.666,310.159 398.5,302.826 398,295.5C 397.667,299.5 397.333,303.5 397,307.5C 379.333,287.167 361.667,266.833 344,246.5C 342.844,242.877 341.844,239.211 341,235.5C 340.31,234.262 339.81,234.262 339.5,235.5C 328.873,204.541 308.207,183.541 277.5,172.5C 278.552,172.649 279.552,172.483 280.5,172C 272.911,165.414 266.411,157.914 261,149.5C 250.688,138.851 240.688,127.851 231,116.5C 230.517,115.552 230.351,114.552 230.5,113.5C 233.059,113.802 235.393,113.468 237.5,112.5 Z"/></g>
<g><path style="opacity:1" fill="#ee6e87" d="M 181.5,112.5 C 226.5,111.167 271.5,111.167 316.5,112.5C 312.958,112.187 309.625,112.521 306.5,113.5C 301.821,113.334 297.155,113.501 292.5,114C 303.352,127.18 314.518,140.013 326,152.5C 326.779,149.903 327.279,149.903 327.5,152.5C 321.718,166.539 325.384,177.372 338.5,185C 343.461,186.764 348.461,186.93 353.5,185.5C 368.388,201.901 383.222,218.568 398,235.5C 398.174,230.649 398.674,225.982 399.5,221.5C 399.5,241.167 399.5,260.833 399.5,280.5C 398.679,277.359 398.179,274.025 398,270.5C 397.085,269.672 396.419,268.672 396,267.5C 353.457,217.945 310.457,168.611 267,119.5C 266.208,117.413 265.041,115.579 263.5,114C 265.5,113.667 267.5,113.333 269.5,113C 258.839,112.5 248.172,112.333 237.5,112.5C 218.833,112.5 200.167,112.5 181.5,112.5 Z"/></g>
<g><path style="opacity:1" fill="#ea6b8c" d="M 306.5,113.5 C 310.835,113.917 315.168,114.417 319.5,115C 326.352,123.514 333.519,131.681 341,139.5C 341.239,140.788 340.739,141.788 339.5,142.5C 334.721,144.891 330.721,148.224 327.5,152.5C 327.279,149.903 326.779,149.903 326,152.5C 314.518,140.013 303.352,127.18 292.5,114C 297.155,113.501 301.821,113.334 306.5,113.5 Z"/></g>
<g><path style="opacity:1" fill="#e86a91" d="M 306.5,113.5 C 309.625,112.521 312.958,112.187 316.5,112.5C 323.914,112.396 331.248,113.062 338.5,114.5C 339.072,116.255 339.906,117.922 341,119.5C 349.119,128.773 357.453,137.773 366,146.5C 376.047,159.698 386.547,172.364 397.5,184.5C 397.5,185.167 397.5,185.833 397.5,186.5C 397.687,192.212 397.354,197.879 396.5,203.5C 387.115,193.286 377.948,182.953 369,172.5C 368.333,173.833 367.667,175.167 367,176.5C 366.536,175.906 366.369,175.239 366.5,174.5C 371.382,152.369 362.382,141.702 339.5,142.5C 340.739,141.788 341.239,140.788 341,139.5C 333.519,131.681 326.352,123.514 319.5,115C 315.168,114.417 310.835,113.917 306.5,113.5 Z"/></g>
<g><path style="opacity:1" fill="#fa746d" d="M 185.5,113.5 C 182.168,114.082 178.834,114.916 175.5,116C 190.46,133.962 205.793,151.629 221.5,169C 224.319,168.508 226.986,168.674 229.5,169.5C 220.894,171.735 212.561,174.735 204.5,178.5C 202.211,176.552 199.878,174.552 197.5,172.5C 188.208,160.043 178.041,148.376 167,137.5C 162.194,130.727 157.028,124.227 151.5,118C 149.527,117.505 147.527,117.338 145.5,117.5C 150.551,115.656 155.884,114.656 161.5,114.5C 169.486,113.901 177.486,113.568 185.5,113.5 Z"/></g>
<g><path style="opacity:1" fill="#fd7567" d="M 145.5,117.5 C 147.527,117.338 149.527,117.505 151.5,118C 157.028,124.227 162.194,130.727 167,137.5C 178.041,148.376 188.208,160.043 197.5,172.5C 199.878,174.552 202.211,176.552 204.5,178.5C 197.892,182.443 191.559,186.776 185.5,191.5C 166.709,169.538 147.709,147.705 128.5,126C 127.906,125.536 127.239,125.369 126.5,125.5C 132.215,121.479 138.549,118.812 145.5,117.5 Z"/></g>
<g><path style="opacity:1" fill="#e66b97" d="M 338.5,114.5 C 364.688,117.203 382.188,130.869 391,155.5C 393.811,165.035 395.977,174.701 397.5,184.5C 386.547,172.364 376.047,159.698 366,146.5C 357.453,137.773 349.119,128.773 341,119.5C 339.906,117.922 339.072,116.255 338.5,114.5 Z"/></g>
<g><path style="opacity:1" fill="#ff7965" d="M 126.5,125.5 C 127.239,125.369 127.906,125.536 128.5,126C 147.709,147.705 166.709,169.538 185.5,191.5C 181.805,195.526 178.138,199.526 174.5,203.5C 166.779,194.419 159.279,185.086 152,175.5C 140.271,164.103 129.604,151.769 120,138.5C 118.67,137.418 117.17,136.751 115.5,136.5C 118.167,131.833 121.833,128.167 126.5,125.5 Z"/></g>
<g><path style="opacity:1" fill="#ff7f66" d="M 115.5,136.5 C 117.17,136.751 118.67,137.418 120,138.5C 129.604,151.769 140.271,164.103 152,175.5C 159.279,185.086 166.779,194.419 174.5,203.5C 170.439,208.897 166.773,214.564 163.5,220.5C 144.51,198.54 125.51,176.54 106.5,154.5C 107.991,147.661 110.991,141.661 115.5,136.5 Z"/></g>
<g><path style="opacity:1" fill="#e1669f" d="M 456.5,166.5 C 456.5,170.833 456.5,175.167 456.5,179.5C 456.5,188.167 456.5,196.833 456.5,205.5C 456.768,207.099 456.434,208.432 455.5,209.5C 455.662,207.473 455.495,205.473 455,203.5C 448.879,197.388 443.546,190.722 439,183.5C 436.564,180.553 433.731,178.22 430.5,176.5C 428.962,157.439 423.295,139.772 413.5,123.5C 413.56,122.957 413.893,122.624 414.5,122.5C 428.561,137.724 442.061,153.391 455,169.5C 455.232,168.263 455.732,167.263 456.5,166.5 Z"/></g>
<g><path style="opacity:1" fill="#ff9f6b" d="M -0.5,137.5 C 15.2685,156.621 31.7685,175.287 49,193.5C 52.9096,200.577 58.0762,206.577 64.5,211.5C 64.5,214.833 64.5,218.167 64.5,221.5C 63.6717,227.987 63.1717,234.654 63,241.5C 62.6401,239.392 61.9734,237.392 61,235.5C 51.3522,223.188 41.0189,211.521 30,200.5C 23.2582,192.766 16.9248,184.766 11,176.5C 7.1685,172.843 3.33517,169.176 -0.5,165.5C -0.5,156.167 -0.5,146.833 -0.5,137.5 Z"/></g>
<g><path style="opacity:1" fill="#fefcfd" d="M 339.5,142.5 C 362.382,141.702 371.382,152.369 366.5,174.5C 363.178,179.332 358.845,182.999 353.5,185.5C 348.461,186.93 343.461,186.764 338.5,185C 325.384,177.372 321.718,166.539 327.5,152.5C 330.721,148.224 334.721,144.891 339.5,142.5 Z"/></g>
<g><path style="opacity:1" fill="#ff8768" d="M 106.5,154.5 C 125.51,176.54 144.51,198.54 163.5,220.5C 160.2,228.398 157.534,236.398 155.5,244.5C 155.322,241.784 154.822,239.117 154,236.5C 138.93,219.77 124.264,202.77 110,185.5C 108,183.5 106,181.5 104,179.5C 103.667,179.833 103.333,180.167 103,180.5C 102.503,177.854 102.336,175.187 102.5,172.5C 102.704,166.134 104.037,160.134 106.5,154.5 Z"/></g>
<g><path style="opacity:1" fill="#d73f8b" d="M 456.5,157.5 C 462.825,164.325 469.325,170.992 476,177.5C 482.621,186.456 489.621,195.123 497,203.5C 497.333,195.5 497.667,187.5 498,179.5C 502.366,184.695 506.866,189.695 511.5,194.5C 511.5,206.833 511.5,219.167 511.5,231.5C 506.866,226.695 502.366,221.695 498,216.5C 497.667,219.5 497.333,222.5 497,225.5C 483.719,210.047 470.219,194.714 456.5,179.5C 456.5,175.167 456.5,170.833 456.5,166.5C 456.5,163.5 456.5,160.5 456.5,157.5 Z"/></g>
<g><path style="opacity:0.992" fill="#d43d91" d="M 453.5,125.5 C 459.77,132.271 466.27,138.938 473,145.5C 480.179,155.165 487.846,164.499 496,173.5C 497.235,165.577 497.902,157.577 498,149.5C 502.366,154.695 506.866,159.695 511.5,164.5C 511.5,174.5 511.5,184.5 511.5,194.5C 506.866,189.695 502.366,184.695 498,179.5C 497.667,187.5 497.333,195.5 497,203.5C 489.621,195.123 482.621,186.456 476,177.5C 469.325,170.992 462.825,164.325 456.5,157.5C 455.979,151.148 455.313,144.815 454.5,138.5C 454.261,134.158 453.927,129.824 453.5,125.5 Z"/></g>
<g><path style="opacity:1" fill="#ffa56c" d="M -0.5,165.5 C 3.33517,169.176 7.1685,172.843 11,176.5C 16.9248,184.766 23.2582,192.766 30,200.5C 41.0189,211.521 51.3522,223.188 61,235.5C 61.9734,237.392 62.6401,239.392 63,241.5C 63.1717,234.654 63.6717,227.987 64.5,221.5C 64.5,236.167 64.5,250.833 64.5,265.5C 60.07,259.38 55.57,253.047 51,246.5C 49.3333,245.167 47.6667,243.833 46,242.5C 30.6351,224.308 15.1351,206.308 -0.5,188.5C -0.5,180.833 -0.5,173.167 -0.5,165.5 Z"/></g>
<g><path style="opacity:1" fill="#fffdfd" d="M 236.5,168.5 C 250.388,167.752 264.054,169.085 277.5,172.5C 308.207,183.541 328.873,204.541 339.5,235.5C 342.662,249.684 343.328,264.017 341.5,278.5C 339.692,284.727 338.026,291.061 336.5,297.5C 333.355,304.456 329.689,311.123 325.5,317.5C 320.901,323.438 315.901,329.105 310.5,334.5C 307.185,336.808 303.851,339.141 300.5,341.5C 292.426,346.288 284.093,350.288 275.5,353.5C 269.685,354.399 264.018,355.399 258.5,356.5C 250.5,356.5 242.5,356.5 234.5,356.5C 223.556,354.085 212.89,350.418 202.5,345.5C 180.857,332.189 165.857,313.522 157.5,289.5C 155.021,276.629 154.021,263.629 154.5,250.5C 155.15,248.565 155.483,246.565 155.5,244.5C 157.534,236.398 160.2,228.398 163.5,220.5C 166.773,214.564 170.439,208.897 174.5,203.5C 178.138,199.526 181.805,195.526 185.5,191.5C 191.559,186.776 197.892,182.443 204.5,178.5C 212.561,174.735 220.894,171.735 229.5,169.5C 231.806,169.007 234.139,168.674 236.5,168.5 Z"/></g>
<g><path style="opacity:1" fill="#ea6c8c" d="M 396.5,203.5 C 396.435,203.938 396.601,204.272 397,204.5C 397.333,203.833 397.667,203.167 398,202.5C 398.765,208.817 399.265,215.151 399.5,221.5C 398.674,225.982 398.174,230.649 398,235.5C 383.222,218.568 368.388,201.901 353.5,185.5C 358.845,182.999 363.178,179.332 366.5,174.5C 366.369,175.239 366.536,175.906 367,176.5C 367.667,175.167 368.333,173.833 369,172.5C 377.948,182.953 387.115,193.286 396.5,203.5 Z"/></g>
<g><path style="opacity:1" fill="#e46899" d="M 430.5,176.5 C 433.731,178.22 436.564,180.553 439,183.5C 443.546,190.722 448.879,197.388 455,203.5C 455.495,205.473 455.662,207.473 455.5,209.5C 454.737,217.142 454.403,224.809 454.5,232.5C 453.596,233.209 453.263,234.209 453.5,235.5C 447.018,227.905 440.518,220.238 434,212.5C 433.802,210.618 433.302,208.952 432.5,207.5C 432.177,197.658 431.511,187.992 430.5,178.5C 430.5,177.833 430.5,177.167 430.5,176.5 Z"/></g>
<g><path style="opacity:1" fill="#ff8c68" d="M 102.5,172.5 C 102.336,175.187 102.503,177.854 103,180.5C 103.333,180.167 103.667,179.833 104,179.5C 106,181.5 108,183.5 110,185.5C 124.264,202.77 138.93,219.77 154,236.5C 154.822,239.117 155.322,241.784 155.5,244.5C 155.483,246.565 155.15,248.565 154.5,250.5C 153.671,257.989 153.171,265.656 153,273.5C 152.8,269.247 152.3,265.08 151.5,261C 151.957,260.586 152.291,260.086 152.5,259.5C 151.469,258.3 150.635,256.966 150,255.5C 136.618,241.451 123.951,226.784 112,211.5C 108.228,208.64 104.895,205.306 102,201.5C 101.722,202.416 101.222,203.082 100.5,203.5C 100.5,197.833 100.5,192.167 100.5,186.5C 100.229,181.566 100.896,176.9 102.5,172.5 Z"/></g>
<g><path style="opacity:1" fill="#da4086" d="M 456.5,179.5 C 470.219,194.714 483.719,210.047 497,225.5C 497.333,222.5 497.667,219.5 498,216.5C 502.366,221.695 506.866,226.695 511.5,231.5C 511.5,235.833 511.5,240.167 511.5,244.5C 506.866,239.695 502.366,234.695 498,229.5C 497.667,236.833 497.333,244.167 497,251.5C 485.308,239.137 474.308,226.137 464,212.5C 461.098,210.489 458.598,208.156 456.5,205.5C 456.5,196.833 456.5,188.167 456.5,179.5 Z"/></g>
<g><path style="opacity:1" fill="#ffab6d" d="M -0.5,188.5 C 15.1351,206.308 30.6351,224.308 46,242.5C 47.6667,243.833 49.3333,245.167 51,246.5C 55.57,253.047 60.07,259.38 64.5,265.5C 64.5,270.5 64.5,275.5 64.5,280.5C 63.6762,284.312 63.1762,288.312 63,292.5C 62.6667,290.833 62.3333,289.167 62,287.5C 41.3017,263.307 20.4683,239.307 -0.5,215.5C -0.5,206.5 -0.5,197.5 -0.5,188.5 Z"/></g>
<g><path style="opacity:1" fill="#ff936a" d="M 154.5,250.5 C 154.021,263.629 155.021,276.629 157.5,289.5C 157.631,290.239 157.464,290.906 157,291.5C 138.307,270.144 119.64,248.81 101,227.5C 100.667,228.167 100.333,228.833 100,229.5C 99.2249,220.785 99.3915,212.119 100.5,203.5C 101.222,203.082 101.722,202.416 102,201.5C 104.895,205.306 108.228,208.64 112,211.5C 123.951,226.784 136.618,241.451 150,255.5C 150.635,256.966 151.469,258.3 152.5,259.5C 152.291,260.086 151.957,260.586 151.5,261C 152.3,265.08 152.8,269.247 153,273.5C 153.171,265.656 153.671,257.989 154.5,250.5 Z"/></g>
<g><path style="opacity:1" fill="#fa746c" d="M 252.5,201.5 C 250.031,202.317 247.365,202.817 244.5,203C 256.358,215.529 267.525,228.696 278,242.5C 288.021,252.524 297.354,263.19 306,274.5C 306.807,270.551 307.307,270.551 307.5,274.5C 306.747,280.198 305.08,285.532 302.5,290.5C 297.223,285.736 291.723,280.403 286,274.5C 267.734,252.561 249.067,230.895 230,209.5C 228.066,207.581 228.233,206.081 230.5,205C 230.272,204.601 229.938,204.435 229.5,204.5C 231.562,203.224 233.896,202.39 236.5,202C 241.823,201.501 247.156,201.334 252.5,201.5 Z"/></g>
<g><path style="opacity:1" fill="#f87373" d="M 252.5,201.5 C 288.117,205.952 307.117,226.118 309.5,262C 309.514,266.411 308.847,270.578 307.5,274.5C 307.307,270.551 306.807,270.551 306,274.5C 297.354,263.19 288.021,252.524 278,242.5C 267.525,228.696 256.358,215.529 244.5,203C 247.365,202.817 250.031,202.317 252.5,201.5 Z"/></g>
<g><path style="opacity:1" fill="#fd7567" d="M 229.5,204.5 C 229.938,204.435 230.272,204.601 230.5,205C 228.233,206.081 228.066,207.581 230,209.5C 249.067,230.895 267.734,252.561 286,274.5C 291.723,280.403 297.223,285.736 302.5,290.5C 299.444,298.606 294.444,305.273 287.5,310.5C 261.761,278.923 235.094,248.09 207.5,218C 208.823,217.184 209.489,216.017 209.5,214.5C 215.022,209.072 221.688,205.739 229.5,204.5 Z"/></g>
<g><path style="opacity:0.999" fill="#dd4280" d="M 456.5,205.5 C 458.598,208.156 461.098,210.489 464,212.5C 474.308,226.137 485.308,239.137 497,251.5C 497.333,244.167 497.667,236.833 498,229.5C 502.366,234.695 506.866,239.695 511.5,244.5C 511.5,254.833 511.5,265.167 511.5,275.5C 506.866,270.695 502.366,265.695 498,260.5C 497.667,267.5 497.333,274.5 497,281.5C 483.371,264.704 469.204,248.371 454.5,232.5C 454.403,224.809 454.737,217.142 455.5,209.5C 456.434,208.432 456.768,207.099 456.5,205.5 Z"/></g>
<g><path style="opacity:1" fill="#ffb26e" d="M -0.5,215.5 C 20.4683,239.307 41.3017,263.307 62,287.5C 62.3333,289.167 62.6667,290.833 63,292.5C 63.1762,288.312 63.6762,284.312 64.5,280.5C 64.5,297.167 64.5,313.833 64.5,330.5C 63.6773,327.023 63.1773,323.356 63,319.5C 41.9683,294.974 20.8016,270.641 -0.5,246.5C -0.5,236.167 -0.5,225.833 -0.5,215.5 Z"/></g>
<g><path style="opacity:1" fill="#ff7965" d="M 209.5,214.5 C 209.489,216.017 208.823,217.184 207.5,218C 235.094,248.09 261.761,278.923 287.5,310.5C 283.493,314.174 278.827,316.841 273.5,318.5C 261.259,302.376 247.759,286.709 233,271.5C 231.248,268.328 229.248,265.328 227,262.5C 220.976,255.478 214.643,248.811 208,242.5C 203.874,238.22 200.374,233.554 197.5,228.5C 200.383,222.945 204.383,218.278 209.5,214.5 Z"/></g>
<g><path style="opacity:1" fill="#e76991" d="M 432.5,207.5 C 433.302,208.952 433.802,210.618 434,212.5C 440.518,220.238 447.018,227.905 453.5,235.5C 452.927,242.177 452.26,248.843 451.5,255.5C 450.833,258.833 450.167,262.167 449.5,265.5C 444.88,258.611 439.547,252.277 433.5,246.5C 433.768,244.901 433.434,243.568 432.5,242.5C 432.5,230.833 432.5,219.167 432.5,207.5 Z"/></g>
<g><path style="opacity:1" fill="#ff996a" d="M 100.5,186.5 C 100.5,192.167 100.5,197.833 100.5,203.5C 99.3915,212.119 99.2249,220.785 100,229.5C 100.333,228.833 100.667,228.167 101,227.5C 119.64,248.81 138.307,270.144 157,291.5C 157.464,290.906 157.631,290.239 157.5,289.5C 165.857,313.522 180.857,332.189 202.5,345.5C 201.668,346.329 202.001,347.162 203.5,348C 206.375,350.031 209.208,352.198 212,354.5C 227.421,373.925 243.587,392.758 260.5,411C 257.964,411.186 255.631,411.686 253.5,412.5C 247.167,412.5 240.833,412.5 234.5,412.5C 234.918,411.778 235.584,411.278 236.5,411C 192.407,360.56 148.574,309.727 105,258.5C 103.333,256.833 101.667,255.167 100,253.5C 99.8195,256.695 99.3195,259.695 98.5,262.5C 98.5,247.5 98.5,232.5 98.5,217.5C 98.3248,206.962 98.9915,196.628 100.5,186.5 Z"/></g>
<g><path style="opacity:1" fill="#ff7f66" d="M 197.5,228.5 C 200.374,233.554 203.874,238.22 208,242.5C 214.643,248.811 220.976,255.478 227,262.5C 229.248,265.328 231.248,268.328 233,271.5C 247.759,286.709 261.259,302.376 273.5,318.5C 264.633,322.09 255.3,323.757 245.5,323.5C 247.042,322.837 248.709,322.17 250.5,321.5C 238.828,308.655 227.661,295.322 217,281.5C 210.357,275.189 204.024,268.522 198,261.5C 196.248,258.328 194.248,255.328 192,252.5C 191.333,251.167 190.667,251.167 190,252.5C 189.51,251.207 189.343,249.873 189.5,248.5C 190.153,244.038 191.32,239.705 193,235.5C 194.026,232.761 195.526,230.428 197.5,228.5 Z"/></g>
<g><path style="opacity:1" fill="#f18ca2" d="M 397.5,186.5 C 398.821,193.296 399.655,200.296 400,207.5C 400.83,236.67 400.664,265.67 399.5,294.5C 399.5,289.833 399.5,285.167 399.5,280.5C 399.5,260.833 399.5,241.167 399.5,221.5C 399.265,215.151 398.765,208.817 398,202.5C 397.667,203.167 397.333,203.833 397,204.5C 396.601,204.272 396.435,203.938 396.5,203.5C 397.354,197.879 397.687,192.212 397.5,186.5 Z"/></g>
<g><path style="opacity:1" fill="#e14479" d="M 454.5,232.5 C 469.204,248.371 483.371,264.704 497,281.5C 497.333,274.5 497.667,267.5 498,260.5C 502.366,265.695 506.866,270.695 511.5,275.5C 511.5,284.167 511.5,292.833 511.5,301.5C 506.866,296.695 502.366,291.695 498,286.5C 497.667,293.5 497.333,300.5 497,307.5C 482.341,289.677 467.174,272.344 451.5,255.5C 452.26,248.843 452.927,242.177 453.5,235.5C 453.263,234.209 453.596,233.209 454.5,232.5 Z"/></g>
<g><path style="opacity:1" fill="#ffb86f" d="M -0.5,246.5 C 20.8016,270.641 41.9683,294.974 63,319.5C 63.1773,323.356 63.6773,327.023 64.5,330.5C 65.299,333.43 65.6323,336.43 65.5,339.5C 65.6641,342.187 65.4974,344.854 65,347.5C 52.7622,330.927 39.4289,315.26 25,300.5C 17.4045,289.929 8.90451,280.263 -0.5,271.5C -0.5,263.167 -0.5,254.833 -0.5,246.5 Z"/></g>
<g><path style="opacity:1" fill="#ea6b8c" d="M 433.5,246.5 C 439.547,252.277 444.88,258.611 449.5,265.5C 449.156,269.894 448.49,274.228 447.5,278.5C 446.578,282.112 445.911,285.779 445.5,289.5C 441.898,285.395 438.065,281.395 434,277.5C 433.5,267.172 433.334,256.839 433.5,246.5 Z"/></g>
<g><path style="opacity:1" fill="#ff8768" d="M 189.5,248.5 C 189.343,249.873 189.51,251.207 190,252.5C 190.667,251.167 191.333,251.167 192,252.5C 194.248,255.328 196.248,258.328 198,261.5C 204.024,268.522 210.357,275.189 217,281.5C 227.661,295.322 238.828,308.655 250.5,321.5C 248.709,322.17 247.042,322.837 245.5,323.5C 214.48,321.318 195.647,304.985 189,274.5C 186.948,265.655 187.115,256.988 189.5,248.5 Z"/></g>
<g><path style="opacity:1" fill="#ff9f6b" d="M 234.5,412.5 C 226.135,412.553 217.802,412.053 209.5,411C 210.956,410.577 211.456,409.744 211,408.5C 174.001,365.837 137.001,323.17 100,280.5C 99.7216,281.416 99.2216,282.082 98.5,282.5C 98.5,275.833 98.5,269.167 98.5,262.5C 99.3195,259.695 99.8195,256.695 100,253.5C 101.667,255.167 103.333,256.833 105,258.5C 148.574,309.727 192.407,360.56 236.5,411C 235.584,411.278 234.918,411.778 234.5,412.5 Z"/></g>
<g><path style="opacity:1" fill="#f47179" d="M 398.5,317.5 C 398.825,327.717 398.158,337.717 396.5,347.5C 396.824,343.445 396.491,339.445 395.5,335.5C 377.843,315.673 360.343,295.673 343,275.5C 342.768,276.737 342.268,277.737 341.5,278.5C 343.328,264.017 342.662,249.684 339.5,235.5C 339.81,234.262 340.31,234.262 341,235.5C 341.844,239.211 342.844,242.877 344,246.5C 361.667,266.833 379.333,287.167 397,307.5C 397.333,303.5 397.667,299.5 398,295.5C 398.5,302.826 398.666,310.159 398.5,317.5 Z"/></g>
<g><path style="opacity:0.998" fill="#e44573" d="M 451.5,255.5 C 467.174,272.344 482.341,289.677 497,307.5C 497.333,300.5 497.667,293.5 498,286.5C 502.366,291.695 506.866,296.695 511.5,301.5C 511.5,310.5 511.5,319.5 511.5,328.5C 506.866,323.695 502.366,318.695 498,313.5C 497.912,319.61 497.245,325.61 496,331.5C 481.038,314.699 466.205,297.699 451.5,280.5C 450.378,279.37 449.044,278.703 447.5,278.5C 448.49,274.228 449.156,269.894 449.5,265.5C 450.167,262.167 450.833,258.833 451.5,255.5 Z"/></g>
<g><path style="opacity:1" fill="#fbe0e6" d="M 430.5,178.5 C 431.511,187.992 432.177,197.658 432.5,207.5C 432.5,219.167 432.5,230.833 432.5,242.5C 432.831,272.671 432.498,302.671 431.5,332.5C 431.734,281.16 431.4,229.827 430.5,178.5 Z"/></g>
<g><path style="opacity:1" fill="#ffbe71" d="M -0.5,271.5 C 8.90451,280.263 17.4045,289.929 25,300.5C 39.4289,315.26 52.7622,330.927 65,347.5C 65.4974,344.854 65.6641,342.187 65.5,339.5C 66.6417,353.667 69.3084,367.667 73.5,381.5C 71.629,381.141 70.129,380.141 69,378.5C 46.3151,351.322 23.1484,324.655 -0.5,298.5C -0.5,289.5 -0.5,280.5 -0.5,271.5 Z"/></g>
<g><path style="opacity:1" fill="#f77273" d="M 396.5,347.5 C 396.425,354.214 395.092,360.548 392.5,366.5C 378.904,351.631 365.737,336.298 353,320.5C 346.567,314.905 341.067,308.572 336.5,301.5C 337.705,300.005 337.705,298.672 336.5,297.5C 338.026,291.061 339.692,284.727 341.5,278.5C 342.268,277.737 342.768,276.737 343,275.5C 360.343,295.673 377.843,315.673 395.5,335.5C 396.491,339.445 396.824,343.445 396.5,347.5 Z"/></g>
<g><path style="opacity:1" fill="#ed6b84" d="M 432.5,242.5 C 433.434,243.568 433.768,244.901 433.5,246.5C 433.334,256.839 433.5,267.172 434,277.5C 438.065,281.395 441.898,285.395 445.5,289.5C 444.96,292.865 444.294,296.198 443.5,299.5C 441.583,306.749 439.916,314.082 438.5,321.5C 436.205,327.997 434.205,334.663 432.5,341.5C 432.5,342.167 432.167,342.5 431.5,342.5C 431.5,339.167 431.5,335.833 431.5,332.5C 432.498,302.671 432.831,272.671 432.5,242.5 Z"/></g>
<g><path style="opacity:0.998" fill="#e6476d" d="M 447.5,278.5 C 449.044,278.703 450.378,279.37 451.5,280.5C 466.205,297.699 481.038,314.699 496,331.5C 497.245,325.61 497.912,319.61 498,313.5C 502.366,318.695 506.866,323.695 511.5,328.5C 511.5,337.167 511.5,345.833 511.5,354.5C 506.866,349.695 502.366,344.695 498,339.5C 497.862,345.581 497.196,351.581 496,357.5C 490.689,352.521 485.689,347.187 481,341.5C 475.047,333.212 468.714,325.212 462,317.5C 456.19,312.021 450.69,306.188 445.5,300C 444.906,299.536 444.239,299.369 443.5,299.5C 444.294,296.198 444.96,292.865 445.5,289.5C 445.911,285.779 446.578,282.112 447.5,278.5 Z"/></g>
<g><path style="opacity:1" fill="#ffa56e" d="M 234.5,412.5 C 240.833,412.5 247.167,412.5 253.5,412.5C 259.833,412.5 266.167,412.5 272.5,412.5C 279.5,412.5 286.5,412.5 293.5,412.5C 301.5,412.5 309.5,412.5 317.5,412.5C 277.5,413.833 237.5,413.833 197.5,412.5C 200.518,412.665 203.518,412.498 206.5,412C 200.167,411.667 193.833,411.333 187.5,411C 188.833,410.667 190.167,410.333 191.5,410C 182.703,399.535 173.537,389.368 164,379.5C 161.608,376.772 159.608,373.772 158,370.5C 142.27,354.435 127.604,337.435 114,319.5C 109.221,315.297 104.887,310.63 101,305.5C 100.667,306.5 100.333,307.5 100,308.5C 99.1678,299.849 98.6678,291.183 98.5,282.5C 99.2216,282.082 99.7216,281.416 100,280.5C 137.001,323.17 174.001,365.837 211,408.5C 211.456,409.744 210.956,410.577 209.5,411C 217.802,412.053 226.135,412.553 234.5,412.5 Z"/></g>
<g><path style="opacity:1" fill="#ffc471" d="M -0.5,298.5 C 23.1484,324.655 46.3151,351.322 69,378.5C 70.129,380.141 71.629,381.141 73.5,381.5C 82.4822,405.484 98.4822,423.151 121.5,434.5C 120.448,434.351 119.448,434.517 118.5,435C 126.091,444.682 134.257,453.848 143,462.5C 149.714,470.212 156.047,478.212 162,486.5C 170.444,494.11 177.944,502.444 184.5,511.5C 177.833,511.5 171.167,511.5 164.5,511.5C 109.561,448.22 54.5608,384.886 -0.5,321.5C -0.5,313.833 -0.5,306.167 -0.5,298.5 Z"/></g>
<g><path style="opacity:0.997" fill="#ea4966" d="M 443.5,299.5 C 444.239,299.369 444.906,299.536 445.5,300C 450.69,306.188 456.19,312.021 462,317.5C 468.714,325.212 475.047,333.212 481,341.5C 485.689,347.187 490.689,352.521 496,357.5C 497.196,351.581 497.862,345.581 498,339.5C 502.366,344.695 506.866,349.695 511.5,354.5C 511.5,364.833 511.5,375.167 511.5,385.5C 506.866,380.695 502.366,375.695 498,370.5C 497.667,375.167 497.333,379.833 497,384.5C 496.751,385.624 496.251,386.624 495.5,387.5C 477.111,364.792 458.111,342.792 438.5,321.5C 439.916,314.082 441.583,306.749 443.5,299.5 Z"/></g>
<g><path style="opacity:1" fill="#ffac6f" d="M 98.5,217.5 C 98.5,232.5 98.5,247.5 98.5,262.5C 98.5,269.167 98.5,275.833 98.5,282.5C 98.6678,291.183 99.1678,299.849 100,308.5C 100.333,307.5 100.667,306.5 101,305.5C 104.887,310.63 109.221,315.297 114,319.5C 127.604,337.435 142.27,354.435 158,370.5C 159.608,373.772 161.608,376.772 164,379.5C 173.537,389.368 182.703,399.535 191.5,410C 190.167,410.333 188.833,410.667 187.5,411C 193.833,411.333 200.167,411.667 206.5,412C 203.518,412.498 200.518,412.665 197.5,412.5C 190.313,412.825 183.313,412.491 176.5,411.5C 172.322,410.594 167.988,409.76 163.5,409C 164.167,408.667 164.833,408.333 165.5,408C 159.727,399.228 152.894,391.395 145,384.5C 132.075,369.605 119.409,354.605 107,339.5C 105.333,337.833 103.667,336.167 102,334.5C 101.667,335.833 101.333,337.167 101,338.5C 100.802,336.618 100.302,334.952 99.5,333.5C 97.3123,294.697 96.979,256.031 98.5,217.5 Z"/></g>
<g><path style="opacity:1" fill="#fa746d" d="M 336.5,297.5 C 337.705,298.672 337.705,300.005 336.5,301.5C 341.067,308.572 346.567,314.905 353,320.5C 365.737,336.298 378.904,351.631 392.5,366.5C 390.734,374.032 387.401,380.699 382.5,386.5C 369.955,370.113 356.455,354.447 342,339.5C 337.414,332.08 331.914,325.414 325.5,319.5C 326.55,318.571 326.55,317.905 325.5,317.5C 329.689,311.123 333.355,304.456 336.5,297.5 Z"/></g>
<g><path style="opacity:1" fill="#fd7567" d="M 325.5,317.5 C 326.55,317.905 326.55,318.571 325.5,319.5C 331.914,325.414 337.414,332.08 342,339.5C 356.455,354.447 369.955,370.113 382.5,386.5C 379.446,391.887 375.113,395.887 369.5,398.5C 368.178,398.33 367.011,398.663 366,399.5C 356.325,389.491 346.992,379.158 338,368.5C 337.667,367.5 337.333,366.5 337,365.5C 327.805,355.641 318.639,345.807 309.5,336C 310.056,335.617 310.389,335.117 310.5,334.5C 315.901,329.105 320.901,323.438 325.5,317.5 Z"/></g>
<g><path style="opacity:1" fill="#ffca72" d="M -0.5,321.5 C 54.5608,384.886 109.561,448.22 164.5,511.5C 155.833,511.5 147.167,511.5 138.5,511.5C 137.791,510.596 136.791,510.263 135.5,510.5C 130.191,503.028 124.358,496.028 118,489.5C 94.6667,462.167 71.3333,434.833 48,407.5C 31.3366,389.433 15.17,371.099 -0.5,352.5C -0.5,342.167 -0.5,331.833 -0.5,321.5 Z"/></g>
<g><path style="opacity:1" fill="#ffb26f" d="M 99.5,333.5 C 100.302,334.952 100.802,336.618 101,338.5C 101.333,337.167 101.667,335.833 102,334.5C 103.667,336.167 105.333,337.833 107,339.5C 119.409,354.605 132.075,369.605 145,384.5C 152.894,391.395 159.727,399.228 165.5,408C 164.833,408.333 164.167,408.667 163.5,409C 167.988,409.76 172.322,410.594 176.5,411.5C 156.55,411.765 138.217,406.598 121.5,396C 113.121,388.608 107.621,379.441 105,368.5C 102.002,357.013 100.169,345.346 99.5,333.5 Z"/></g>
<g><path style="opacity:1" fill="#ff7965" d="M 310.5,334.5 C 310.389,335.117 310.056,335.617 309.5,336C 318.639,345.807 327.805,355.641 337,365.5C 337.333,366.5 337.667,367.5 338,368.5C 346.992,379.158 356.325,389.491 366,399.5C 367.011,398.663 368.178,398.33 369.5,398.5C 365.192,402.152 360.192,404.486 354.5,405.5C 352.669,406.052 351.003,406.052 349.5,405.5C 332.463,385.468 315.463,365.468 298.5,345.5C 299.63,344.378 300.297,343.044 300.5,341.5C 303.851,339.141 307.185,336.808 310.5,334.5 Z"/></g>
<g><path style="opacity:0.996" fill="#f04c5a" d="M 432.5,341.5 C 436.417,344.914 440.251,348.58 444,352.5C 460.681,372.842 477.681,392.842 495,412.5C 496.43,407.255 497.43,401.922 498,396.5C 502.032,401.361 506.199,406.028 510.5,410.5C 509.372,418.831 507.372,426.831 504.5,434.5C 503.556,428.866 500.556,424.533 495.5,421.5C 493.725,425.385 492.225,429.385 491,433.5C 470.275,409.284 449.442,385.284 428.5,361.5C 429.745,355.206 430.745,348.873 431.5,342.5C 432.167,342.5 432.5,342.167 432.5,341.5 Z"/></g>
<g><path style="opacity:1" fill="#ff8066" d="M 300.5,341.5 C 300.297,343.044 299.63,344.378 298.5,345.5C 315.463,365.468 332.463,385.468 349.5,405.5C 351.003,406.052 352.669,406.052 354.5,405.5C 347.937,408.567 340.937,410.234 333.5,410.5C 330.813,410.664 328.146,410.497 325.5,410C 325.833,409.667 326.167,409.333 326.5,409C 319.898,400.61 312.731,392.777 305,385.5C 297.095,374.871 288.595,364.704 279.5,355C 277.942,354.79 276.609,354.29 275.5,353.5C 284.093,350.288 292.426,346.288 300.5,341.5 Z"/></g>
<g><path style="opacity:1" fill="#ff9269" d="M 202.5,345.5 C 212.89,350.418 223.556,354.085 234.5,356.5C 233.127,356.343 231.793,356.51 230.5,357C 233.167,357.667 235.833,358.333 238.5,359C 253.874,376.038 268.874,393.371 283.5,411C 279.644,411.177 275.977,411.677 272.5,412.5C 266.167,412.5 259.833,412.5 253.5,412.5C 255.631,411.686 257.964,411.186 260.5,411C 243.587,392.758 227.421,373.925 212,354.5C 209.208,352.198 206.375,350.031 203.5,348C 202.001,347.162 201.668,346.329 202.5,345.5 Z"/></g>
<g><path style="opacity:1" fill="#ffd174" d="M -0.5,352.5 C 15.17,371.099 31.3366,389.433 48,407.5C 71.3333,434.833 94.6667,462.167 118,489.5C 124.358,496.028 130.191,503.028 135.5,510.5C 128.412,510.795 121.412,510.462 114.5,509.5C 100.959,494.747 88.1259,479.414 76,463.5C 64.5739,452.41 54.2406,440.41 45,427.5C 33.5739,416.41 23.2406,404.41 14,391.5C 8.96349,386.631 4.13015,381.631 -0.5,376.5C -0.5,368.5 -0.5,360.5 -0.5,352.5 Z"/></g>
<g><path style="opacity:1" fill="#ff8767" d="M 275.5,353.5 C 276.609,354.29 277.942,354.79 279.5,355C 288.595,364.704 297.095,374.871 305,385.5C 312.731,392.777 319.898,400.61 326.5,409C 326.167,409.333 325.833,409.667 325.5,410C 328.146,410.497 330.813,410.664 333.5,410.5C 328.367,411.665 323.034,412.332 317.5,412.5C 309.5,412.5 301.5,412.5 293.5,412.5C 296.689,411.834 300.023,411.167 303.5,410.5C 292.022,395.858 279.855,381.858 267,368.5C 264.34,364.346 261.507,360.346 258.5,356.5C 264.018,355.399 269.685,354.399 275.5,353.5 Z"/></g>
<g><path style="opacity:1" fill="#ff8d69" d="M 234.5,356.5 C 242.5,356.5 250.5,356.5 258.5,356.5C 261.507,360.346 264.34,364.346 267,368.5C 279.855,381.858 292.022,395.858 303.5,410.5C 300.023,411.167 296.689,411.834 293.5,412.5C 286.5,412.5 279.5,412.5 272.5,412.5C 275.977,411.677 279.644,411.177 283.5,411C 268.874,393.371 253.874,376.038 238.5,359C 235.833,358.333 233.167,357.667 230.5,357C 231.793,356.51 233.127,356.343 234.5,356.5 Z"/></g>
<g><path style="opacity:1" fill="#f34e54" d="M 428.5,361.5 C 449.442,385.284 470.275,409.284 491,433.5C 492.225,429.385 493.725,425.385 495.5,421.5C 500.556,424.533 503.556,428.866 504.5,434.5C 503.296,439.895 501.296,444.895 498.5,449.5C 495.168,447 492.334,444 490,440.5C 487.813,444.061 485.813,447.727 484,451.5C 472.706,437.267 460.706,423.601 448,410.5C 440.749,400.578 432.749,391.244 424,382.5C 423.617,383.056 423.117,383.389 422.5,383.5C 424.816,376.233 426.816,368.9 428.5,361.5 Z"/></g>
<g><path style="opacity:1" fill="#ffd775" d="M -0.5,376.5 C 4.13015,381.631 8.96349,386.631 14,391.5C 23.2406,404.41 33.5739,416.41 45,427.5C 54.2406,440.41 64.5739,452.41 76,463.5C 88.1259,479.414 100.959,494.747 114.5,509.5C 105.622,509.665 96.9551,508.999 88.5,507.5C 88.6495,506.448 88.4828,505.448 88,504.5C 58.8917,472.33 30.2251,439.663 2,406.5C 1.53566,407.094 1.36899,407.761 1.5,408.5C 0.833333,405.833 0.166667,403.167 -0.5,400.5C -0.5,392.5 -0.5,384.5 -0.5,376.5 Z"/></g>
<g><path style="opacity:0.997" fill="#f6504e" d="M 498.5,449.5 C 496.872,454.09 494.705,458.423 492,462.5C 490.951,464.618 489.451,466.284 487.5,467.5C 485.186,465.523 482.853,463.523 480.5,461.5C 477.427,463.093 475.26,465.426 474,468.5C 469.983,464.414 465.983,460.414 462,456.5C 446.618,437.298 430.785,418.632 414.5,400.5C 416.896,394.708 419.563,389.041 422.5,383.5C 423.117,383.389 423.617,383.056 424,382.5C 432.749,391.244 440.749,400.578 448,410.5C 460.706,423.601 472.706,437.267 484,451.5C 485.813,447.727 487.813,444.061 490,440.5C 492.334,444 495.168,447 498.5,449.5 Z"/></g>
<g><path style="opacity:0.979" fill="#ed4a60" d="M 438.5,321.5 C 458.111,342.792 477.111,364.792 495.5,387.5C 496.251,386.624 496.751,385.624 497,384.5C 497.333,379.833 497.667,375.167 498,370.5C 502.366,375.695 506.866,380.695 511.5,385.5C 511.5,392.167 511.5,398.833 511.5,405.5C 510.549,406.919 510.216,408.585 510.5,410.5C 506.199,406.028 502.032,401.361 498,396.5C 497.43,401.922 496.43,407.255 495,412.5C 477.681,392.842 460.681,372.842 444,352.5C 440.251,348.58 436.417,344.914 432.5,341.5C 434.205,334.663 436.205,327.997 438.5,321.5 Z"/></g>
<g><path style="opacity:1" fill="#ffde77" d="M 88.5,507.5 C 41.8626,499.365 13.6959,472.031 4,425.5C 2.5815,419.91 1.74817,414.243 1.5,408.5C 1.36899,407.761 1.53566,407.094 2,406.5C 30.2251,439.663 58.8917,472.33 88,504.5C 88.4828,505.448 88.6495,506.448 88.5,507.5 Z"/></g>
<g><path style="opacity:1" fill="#fa5147" d="M 414.5,400.5 C 430.785,418.632 446.618,437.298 462,456.5C 465.983,460.414 469.983,464.414 474,468.5C 475.26,465.426 477.427,463.093 480.5,461.5C 482.853,463.523 485.186,465.523 487.5,467.5C 484.617,473.055 480.617,477.722 475.5,481.5C 473.493,479.161 471.493,476.828 469.5,474.5C 467.478,477.356 464.978,479.689 462,481.5C 442.991,459.463 423.991,437.463 405,415.5C 404.617,416.056 404.117,416.389 403.5,416.5C 403.5,415.833 403.5,415.167 403.5,414.5C 407.197,409.809 410.864,405.142 414.5,400.5 Z"/></g>
<g><path style="opacity:0.997" fill="#fd5341" d="M 475.5,481.5 C 471.761,485.568 467.428,488.901 462.5,491.5C 460.537,490.04 458.704,488.373 457,486.5C 454.72,489.924 451.553,491.424 447.5,491C 430.951,470.63 413.951,450.797 396.5,431.5C 398.562,426.375 400.896,421.375 403.5,416.5C 404.117,416.389 404.617,416.056 405,415.5C 423.991,437.463 442.991,459.463 462,481.5C 464.978,479.689 467.478,477.356 469.5,474.5C 471.493,476.828 473.493,479.161 475.5,481.5 Z"/></g>
<g><path style="opacity:1" fill="#ffbe71" d="M 121.5,434.5 C 129.917,437.196 138.251,439.862 146.5,442.5C 150.01,444.488 153.176,447.155 156,450.5C 168.136,465.769 180.97,480.436 194.5,494.5C 198.474,500.47 202.807,506.137 207.5,511.5C 199.833,511.5 192.167,511.5 184.5,511.5C 177.944,502.444 170.444,494.11 162,486.5C 156.047,478.212 149.714,470.212 143,462.5C 134.257,453.848 126.091,444.682 118.5,435C 119.448,434.517 120.448,434.351 121.5,434.5 Z"/></g>
<g><path style="opacity:1" fill="#ff7f67" d="M 403.5,414.5 C 403.5,415.167 403.5,415.833 403.5,416.5C 400.896,421.375 398.562,426.375 396.5,431.5C 392.251,438.329 388.251,445.329 384.5,452.5C 381.665,456.164 379.332,460.164 377.5,464.5C 376.833,464.833 376.167,465.167 375.5,465.5C 369.154,457.971 362.487,450.471 355.5,443C 353.942,442.79 352.609,442.29 351.5,441.5C 371.392,437.222 388.725,428.222 403.5,414.5 Z"/></g>
<g><path style="opacity:1" fill="#ff583e" d="M 396.5,431.5 C 413.951,450.797 430.951,470.63 447.5,491C 451.553,491.424 454.72,489.924 457,486.5C 458.704,488.373 460.537,490.04 462.5,491.5C 456.032,496.734 448.698,500.401 440.5,502.5C 439.15,501.517 438.15,500.184 437.5,498.5C 434.502,500.936 431.336,502.269 428,502.5C 414.064,485.393 399.564,468.727 384.5,452.5C 388.251,445.329 392.251,438.329 396.5,431.5 Z"/></g>
<g><path style="opacity:1" fill="#ff8767" d="M 351.5,441.5 C 352.609,442.29 353.942,442.79 355.5,443C 362.487,450.471 369.154,457.971 375.5,465.5C 372.912,469.674 370.579,474.007 368.5,478.5C 367.5,479.167 366.5,479.833 365.5,480.5C 354.405,468.746 343.738,456.746 333.5,444.5C 339.52,443.664 345.52,442.664 351.5,441.5 Z"/></g>
<g><path style="opacity:1" fill="#ffb86f" d="M 146.5,442.5 C 153.246,443.19 159.913,444.19 166.5,445.5C 168.292,446.309 170.292,446.809 172.5,447C 181.711,455.581 189.878,465.081 197,475.5C 208.011,487.403 218.845,499.403 229.5,511.5C 222.167,511.5 214.833,511.5 207.5,511.5C 202.807,506.137 198.474,500.47 194.5,494.5C 180.97,480.436 168.136,465.769 156,450.5C 153.176,447.155 150.01,444.488 146.5,442.5 Z"/></g>
<g><path style="opacity:1" fill="#fff0e9" d="M 328.5,444.5 C 320.701,445.817 312.701,446.483 304.5,446.5C 302.833,446.5 301.167,446.5 299.5,446.5C 281.167,446.5 262.833,446.5 244.5,446.5C 240.5,446.5 236.5,446.5 232.5,446.5C 220.167,446.5 207.833,446.5 195.5,446.5C 188.978,446.823 182.645,446.49 176.5,445.5C 227.176,445.771 277.842,445.438 328.5,444.5 Z"/></g>
<g><path style="opacity:1" fill="#ff8c68" d="M 328.5,444.5 C 330.167,444.5 331.833,444.5 333.5,444.5C 343.738,456.746 354.405,468.746 365.5,480.5C 364.099,483.634 362.432,486.634 360.5,489.5C 359.061,491.36 357.395,493.027 355.5,494.5C 347.186,485.195 339.353,475.528 332,465.5C 326.134,459.969 320.634,454.135 315.5,448C 311.644,447.823 307.977,447.323 304.5,446.5C 312.701,446.483 320.701,445.817 328.5,444.5 Z"/></g>
<g><path style="opacity:1" fill="#ffb26e" d="M 166.5,445.5 C 169.833,445.5 173.167,445.5 176.5,445.5C 182.645,446.49 188.978,446.823 195.5,446.5C 196.842,447.793 198.509,448.626 200.5,449C 212.063,460.231 222.563,472.398 232,485.5C 240.533,493.591 248.366,502.257 255.5,511.5C 246.833,511.5 238.167,511.5 229.5,511.5C 218.845,499.403 208.011,487.403 197,475.5C 189.878,465.081 181.711,455.581 172.5,447C 170.292,446.809 168.292,446.309 166.5,445.5 Z"/></g>
<g><path style="opacity:1" fill="#ff9269" d="M 299.5,446.5 C 301.167,446.5 302.833,446.5 304.5,446.5C 307.977,447.323 311.644,447.823 315.5,448C 320.634,454.135 326.134,459.969 332,465.5C 339.353,475.528 347.186,485.195 355.5,494.5C 352.589,499.746 348.922,504.413 344.5,508.5C 327.29,489.128 310.29,469.462 293.5,449.5C 290.023,448.833 286.689,448.166 283.5,447.5C 289.026,447.821 294.36,447.488 299.5,446.5 Z"/></g>
<g><path style="opacity:1" fill="#ffab6d" d="M 195.5,446.5 C 207.833,446.5 220.167,446.5 232.5,446.5C 228.018,447.326 223.351,447.826 218.5,448C 221.659,448.011 224.493,448.845 227,450.5C 244.002,470.999 261.168,491.333 278.5,511.5C 270.833,511.5 263.167,511.5 255.5,511.5C 248.366,502.257 240.533,493.591 232,485.5C 222.563,472.398 212.063,460.231 200.5,449C 198.509,448.626 196.842,447.793 195.5,446.5 Z"/></g>
<g><path style="opacity:1" fill="#ffa56c" d="M 232.5,446.5 C 236.5,446.5 240.5,446.5 244.5,446.5C 249.051,453.558 254.551,459.891 261,465.5C 270.604,478.769 281.271,491.103 293,502.5C 295.41,505.397 297.577,508.397 299.5,511.5C 292.5,511.5 285.5,511.5 278.5,511.5C 261.168,491.333 244.002,470.999 227,450.5C 224.493,448.845 221.659,448.011 218.5,448C 223.351,447.826 228.018,447.326 232.5,446.5 Z"/></g>
<g><path style="opacity:1" fill="#ff9f6c" d="M 244.5,446.5 C 262.833,446.5 281.167,446.5 299.5,446.5C 294.36,447.488 289.026,447.821 283.5,447.5C 276.492,447.334 269.492,447.5 262.5,448C 264.5,448.333 266.5,448.667 268.5,449C 287.414,469.408 305.747,490.241 323.5,511.5C 315.5,511.5 307.5,511.5 299.5,511.5C 297.577,508.397 295.41,505.397 293,502.5C 281.271,491.103 270.604,478.769 261,465.5C 254.551,459.891 249.051,453.558 244.5,446.5 Z"/></g>
<g><path style="opacity:1" fill="#ff986a" d="M 283.5,447.5 C 286.689,448.166 290.023,448.833 293.5,449.5C 310.29,469.462 327.29,489.128 344.5,508.5C 343.89,509.391 343.557,510.391 343.5,511.5C 336.833,511.5 330.167,511.5 323.5,511.5C 305.747,490.241 287.414,469.408 268.5,449C 266.5,448.667 264.5,448.333 262.5,448C 269.492,447.5 276.492,447.334 283.5,447.5 Z"/></g>
<g><path style="opacity:0.995" fill="#ff6040" d="M 384.5,452.5 C 399.564,468.727 414.064,485.393 428,502.5C 431.336,502.269 434.502,500.936 437.5,498.5C 438.15,500.184 439.15,501.517 440.5,502.5C 436.044,504.542 431.377,506.209 426.5,507.5C 425.878,506.373 425.045,505.373 424,504.5C 420.518,505.999 417.185,506.665 414,506.5C 401.609,492.733 389.442,478.733 377.5,464.5C 379.332,460.164 381.665,456.164 384.5,452.5 Z"/></g>
<g><path style="opacity:0.991" fill="#ff6641" d="M 377.5,464.5 C 389.442,478.733 401.609,492.733 414,506.5C 417.185,506.665 420.518,505.999 424,504.5C 425.045,505.373 425.878,506.373 426.5,507.5C 419.807,507.987 413.14,508.654 406.5,509.5C 402.688,508.676 398.688,508.176 394.5,508C 385.469,498.358 376.802,488.525 368.5,478.5C 370.579,474.007 372.912,469.674 375.5,465.5C 376.167,465.167 376.833,464.833 377.5,464.5 Z"/></g>
<g><path style="opacity:0.98" fill="#ff6d42" d="M 368.5,478.5 C 376.802,488.525 385.469,498.358 394.5,508C 398.688,508.176 402.688,508.676 406.5,509.5C 399.833,509.833 393.167,510.167 386.5,510.5C 383.695,509.681 380.695,509.181 377.5,509C 372.339,502.009 366.672,495.509 360.5,489.5C 362.432,486.634 364.099,483.634 365.5,480.5C 366.5,479.833 367.5,479.167 368.5,478.5 Z"/></g>
<g><path style="opacity:0.963" fill="#ff7443" d="M 360.5,489.5 C 366.672,495.509 372.339,502.009 377.5,509C 380.695,509.181 383.695,509.681 386.5,510.5C 384.265,510.205 382.265,510.539 380.5,511.5C 368.167,511.5 355.833,511.5 343.5,511.5C 343.557,510.391 343.89,509.391 344.5,508.5C 348.922,504.413 352.589,499.746 355.5,494.5C 357.395,493.027 359.061,491.36 360.5,489.5 Z"/></g>
</svg>
