<?xml version="1.0" encoding="UTF-8"?>
<!DOCTYPE svg PUBLIC "-//W3C//DTD SVG 1.1//EN" "http://www.w3.org/Graphics/SVG/1.1/DTD/svg11.dtd">
<svg xmlns="http://www.w3.org/2000/svg" version="1.1" width="512px" height="512px" style="shape-rendering:geometricPrecision; text-rendering:geometricPrecision; image-rendering:optimizeQuality; fill-rule:evenodd; clip-rule:evenodd" xmlns:xlink="http://www.w3.org/1999/xlink">
<g><path style="opacity:1" fill="#54b848" d="M 57.5,-0.5 C 178.5,-0.5 299.5,-0.5 420.5,-0.5C 449.825,69.9343 461.325,143.268 455,219.5C 446.98,328.453 409.813,425.787 343.5,511.5C 248.167,511.5 152.833,511.5 57.5,511.5C 46.7425,509.622 37.0759,505.288 28.5,498.5C 28.0269,497.094 27.0269,496.427 25.5,496.5C 24.1667,495.833 23.1667,494.833 22.5,493.5C 22.0269,492.094 21.0269,491.427 19.5,491.5C 9.14417,480.789 2.47751,468.122 -0.5,453.5C -0.5,321.5 -0.5,189.5 -0.5,57.5C 1.11713,49.3193 4.11713,41.6526 8.5,34.5C 9.90632,34.0269 10.573,33.0269 10.5,31.5C 10.427,29.9731 11.0937,28.9731 12.5,28.5C 13.9063,28.0269 14.573,27.0269 14.5,25.5C 14.8333,24.5 15.5,23.8333 16.5,23.5C 19.1667,21.5 21.5,19.1667 23.5,16.5C 33.2268,7.63659 44.5601,1.96993 57.5,-0.5 Z"/></g>
<g><path style="opacity:1" fill="#2ba61a" d="M 420.5,-0.5 C 431.5,-0.5 442.5,-0.5 453.5,-0.5C 466.44,1.96993 477.773,7.63659 487.5,16.5C 487.973,17.9063 488.973,18.573 490.5,18.5C 490.738,20.4044 491.738,21.7377 493.5,22.5C 494.833,23.1667 495.833,24.1667 496.5,25.5C 496.427,27.0269 497.094,28.0269 498.5,28.5C 498.427,30.0269 499.094,31.0269 500.5,31.5C 506.117,39.3554 509.784,48.0221 511.5,57.5C 511.5,189.5 511.5,321.5 511.5,453.5C 504.5,485.167 485.167,504.5 453.5,511.5C 416.833,511.5 380.167,511.5 343.5,511.5C 409.813,425.787 446.98,328.453 455,219.5C 461.325,143.268 449.825,69.9343 420.5,-0.5 Z"/></g>
<g><path style="opacity:0.004" fill="#cf4403" d="M 487.5,16.5 C 489.027,16.427 490.027,17.0937 490.5,18.5C 488.973,18.573 487.973,17.9063 487.5,16.5 Z"/></g>
<g><path style="opacity:0.667" fill="#b15a06" d="M 490.5,18.5 C 492.262,19.2623 493.262,20.5956 493.5,22.5C 491.738,21.7377 490.738,20.4044 490.5,18.5 Z"/></g>
<g><path style="opacity:0.639" fill="#bc733a" d="M 23.5,16.5 C 21.5,19.1667 19.1667,21.5 16.5,23.5C 17.8333,20.1667 20.1667,17.8333 23.5,16.5 Z"/></g>
<g><path style="opacity:0.537" fill="#ba753b" d="M 14.5,25.5 C 14.573,27.0269 13.9063,28.0269 12.5,28.5C 12.427,26.9731 13.0937,25.9731 14.5,25.5 Z"/></g>
<g><path style="opacity:0.518" fill="#a95a08" d="M 496.5,25.5 C 497.906,25.9731 498.573,26.9731 498.5,28.5C 497.094,28.0269 496.427,27.0269 496.5,25.5 Z"/></g>
<g><path style="opacity:0.596" fill="#9b6609" d="M 498.5,28.5 C 499.906,28.9731 500.573,29.9731 500.5,31.5C 499.094,31.0269 498.427,30.0269 498.5,28.5 Z"/></g>
<g><path style="opacity:0.475" fill="#b9753b" d="M 10.5,31.5 C 10.573,33.0269 9.90632,34.0269 8.5,34.5C 8.42702,32.9731 9.09368,31.9731 10.5,31.5 Z"/></g>
<g><path style="opacity:1" fill="#fdfefd" d="M 239.5,95.5 C 306.017,92.6715 357.183,119.005 393,174.5C 424.009,233.972 421.009,291.639 384,347.5C 346.465,395.836 296.965,417.336 235.5,412C 217.657,409.552 200.657,404.385 184.5,396.5C 162.739,401.238 141.072,406.405 119.5,412C 113.19,413.499 106.857,414.499 100.5,415C 97.6061,412.091 96.7728,408.591 98,404.5C 103.221,378.676 108.387,352.843 113.5,327C 103.115,303.792 97.4485,279.459 96.5,254C 99.1187,194.403 125.452,148.737 175.5,117C 195.513,105.507 216.846,98.3402 239.5,95.5 Z"/></g>
<g><path style="opacity:1" fill="#54b948" d="M 240.5,130.5 C 301.495,127.063 344.995,152.73 371,207.5C 388.984,261.392 377.818,308.226 337.5,348C 290.471,384.374 240.804,388.208 188.5,359.5C 172.634,363.8 156.634,367.467 140.5,370.5C 143.179,354.605 146.179,338.772 149.5,323C 149.333,321.5 149.167,320 149,318.5C 126.047,276.365 125.713,234.032 148,191.5C 169.424,156.912 200.257,136.578 240.5,130.5 Z"/></g>
<g><path style="opacity:1" fill="#fdfefd" d="M 199.5,177.5 C 204.242,177.136 208.408,178.47 212,181.5C 217.274,192.381 222.274,203.381 227,214.5C 227.701,217.928 227.368,221.262 226,224.5C 221.516,229.148 218.349,234.481 216.5,240.5C 216.466,243.433 217.299,246.1 219,248.5C 233.41,266.58 250.576,281.413 270.5,293C 274.782,293.965 278.782,293.298 282.5,291C 285.833,287.667 289.167,284.333 292.5,281C 294.199,280.042 296.033,279.542 298,279.5C 310.656,282.456 323.156,285.956 335.5,290C 340.081,293.438 341.581,297.938 340,303.5C 327.875,327.309 308.709,336.142 282.5,330C 265.578,325.871 250.245,318.538 236.5,308C 213.286,291.46 195.119,270.627 182,245.5C 176.024,232.336 174.357,218.67 177,204.5C 182.571,193.774 190.071,184.774 199.5,177.5 Z"/></g>
<g><path style="opacity:0.62" fill="#c27039" d="M 19.5,491.5 C 21.0269,491.427 22.0269,492.094 22.5,493.5C 20.9731,493.573 19.9731,492.906 19.5,491.5 Z"/></g>
<g><path style="opacity:0.522" fill="#bc733a" d="M 25.5,496.5 C 27.0269,496.427 28.0269,497.094 28.5,498.5C 26.9731,498.573 25.9731,497.906 25.5,496.5 Z"/></g>
</svg>
