<?xml version="1.0" encoding="UTF-8"?>
<!DOCTYPE svg PUBLIC "-//W3C//DTD SVG 1.1//EN" "http://www.w3.org/Graphics/SVG/1.1/DTD/svg11.dtd">
<svg xmlns="http://www.w3.org/2000/svg" version="1.1" width="512px" height="512px" style="shape-rendering:geometricPrecision; text-rendering:geometricPrecision; image-rendering:optimizeQuality; fill-rule:evenodd; clip-rule:evenodd" xmlns:xlink="http://www.w3.org/1999/xlink">
<g><path style="opacity:0.999" fill="#ff3333" d="M 57.5,-0.5 C 178.5,-0.5 299.5,-0.5 420.5,-0.5C 447.834,65.0202 459.667,133.353 456,204.5C 450.541,319.087 413.041,421.421 343.5,511.5C 248.167,511.5 152.833,511.5 57.5,511.5C 25.8333,504.5 6.5,485.167 -0.5,453.5C -0.5,321.5 -0.5,189.5 -0.5,57.5C 6.5,25.8333 25.8333,6.5 57.5,-0.5 Z"/></g>
<g><path style="opacity:0.997" fill="#ff0000" d="M 420.5,-0.5 C 431.5,-0.5 442.5,-0.5 453.5,-0.5C 485.167,6.5 504.5,25.8333 511.5,57.5C 511.5,189.5 511.5,321.5 511.5,453.5C 504.5,485.167 485.167,504.5 453.5,511.5C 416.833,511.5 380.167,511.5 343.5,511.5C 413.041,421.421 450.541,319.087 456,204.5C 459.667,133.353 447.834,65.0202 420.5,-0.5 Z"/></g>
<g><path style="opacity:1" fill="#fffefe" d="M 154.5,153.5 C 157.518,153.335 160.518,153.502 163.5,154C 227.646,186.907 291.98,219.574 356.5,252C 359.769,255.453 360.269,259.286 358,263.5C 293.274,294.779 228.441,325.946 163.5,357C 160.5,357.667 157.5,357.667 154.5,357C 153.299,356.097 152.465,354.931 152,353.5C 151.333,288.167 151.333,222.833 152,157.5C 152.662,156.016 153.496,154.683 154.5,153.5 Z"/></g>
</svg>
