<?xml version="1.0" encoding="UTF-8"?>
<!DOCTYPE svg PUBLIC "-//W3C//DTD SVG 1.1//EN" "http://www.w3.org/Graphics/SVG/1.1/DTD/svg11.dtd">
<svg xmlns="http://www.w3.org/2000/svg" version="1.1" width="512px" height="512px" style="shape-rendering:geometricPrecision; text-rendering:geometricPrecision; image-rendering:optimizeQuality; fill-rule:evenodd; clip-rule:evenodd" xmlns:xlink="http://www.w3.org/1999/xlink">
<g><path style="opacity:1" fill="#d3cd5d" d="M 30.5,12.5 C 45.3137,11.8129 52.147,18.8129 51,33.5C 45.9406,44.4551 37.7739,47.6217 26.5,43C 18.3137,36.6671 16.4803,28.8338 21,19.5C 23.529,16.1151 26.6956,13.7818 30.5,12.5 Z M 32.5,20.5 C 40.3228,20.1543 43.8228,23.821 43,31.5C 40.4586,36.0685 36.6253,37.5685 31.5,36C 25.8731,30.2742 26.2065,25.1075 32.5,20.5 Z"/></g>
<g><path style="opacity:1" fill="#d3cd5d" d="M 365.5,25.5 C 367.199,25.3398 368.866,25.5065 370.5,26C 371.577,30.5778 371.077,35.0778 369,39.5C 365.319,41.3993 362.819,40.3993 361.5,36.5C 362.385,32.5944 363.719,28.9277 365.5,25.5 Z"/></g>
<g><path style="opacity:1" fill="#d3cd5d" d="M 443.5,26.5 C 445.199,26.3398 446.866,26.5065 448.5,27C 453.201,30.6811 458.201,33.8478 463.5,36.5C 469.161,34.5017 474.828,32.5017 480.5,30.5C 483.167,31.1667 484.833,32.8333 485.5,35.5C 483.679,41.1156 482.013,46.7822 480.5,52.5C 483.771,57.6136 487.271,62.6136 491,67.5C 491.896,70.025 491.396,72.1917 489.5,74C 483.16,74.6007 476.826,75.2674 470.5,76C 466.833,81 463.167,86 459.5,91C 456.86,91.839 454.527,91.339 452.5,89.5C 450.744,83.5573 448.411,77.8906 445.5,72.5C 439.887,70.5131 434.22,68.6797 428.5,67C 427.427,65.6871 426.76,64.1871 426.5,62.5C 427.897,59.5935 429.897,57.0935 432.5,55C 435.423,52.9545 438.257,50.7879 441,48.5C 441.333,41.8333 441.667,35.1667 442,28.5C 442.717,27.9558 443.217,27.2891 443.5,26.5 Z"/></g>
<g><path style="opacity:1" fill="#b69f6e" d="M 221.5,28.5 C 233.488,27.7386 241.988,32.7386 247,43.5C 269.491,152.466 291.825,261.466 314,370.5C 316.19,386.638 309.357,396.472 293.5,400C 230.831,412.667 168.164,425.334 105.5,438C 91.1419,438.912 82.3086,432.412 79,418.5C 56.8328,308.997 34.6662,199.497 12.5,90C 13.3105,78.8622 18.9771,71.5289 29.5,68C 93.669,55.0003 157.669,41.8336 221.5,28.5 Z M 216.5,57.5 C 218.857,57.3367 221.19,57.5034 223.5,58C 228.653,76.9237 232.986,96.0904 236.5,115.5C 236.167,119.989 233.833,121.489 229.5,120C 229,119.5 228.5,119 228,118.5C 224.023,101.592 220.523,84.5915 217.5,67.5C 202.94,69.764 188.44,72.4307 174,75.5C 168.154,75.293 166.654,72.793 169.5,68C 185.333,64.6696 200.999,61.1696 216.5,57.5 Z M 91.5,82.5 C 98.4767,84.5587 99.1433,87.7253 93.5,92C 79.2185,95.1563 64.8851,97.9897 50.5,100.5C 53.3528,117.581 56.6861,134.581 60.5,151.5C 59.7834,155.525 57.4501,157.025 53.5,156C 52.1068,154.829 51.2735,153.329 51,151.5C 47.3563,133.447 43.523,115.447 39.5,97.5C 40.1279,95.7419 41.1279,94.2419 42.5,93C 59.0033,89.6678 75.3367,86.1678 91.5,82.5 Z M 147.5,149.5 C 149.229,150.117 150.729,151.117 152,152.5C 150.334,166.354 153.167,179.188 160.5,191C 157.893,195.993 154.727,196.493 151,192.5C 143.378,180.062 141.045,166.728 144,152.5C 145.145,151.364 146.312,150.364 147.5,149.5 Z M 188.5,152.5 C 192.264,153.423 193.764,155.756 193,159.5C 185.353,169.106 181.687,180.106 182,192.5C 180.155,196.795 177.488,197.462 174,194.5C 172.495,183.186 174.495,172.519 180,162.5C 182.15,158.497 184.984,155.164 188.5,152.5 Z M 109.5,168.5 C 111.903,168.393 113.736,169.393 115,171.5C 119.52,183.355 127.52,192.021 139,197.5C 140.502,203.327 138.336,205.494 132.5,204C 118.753,196.607 110.253,185.44 107,170.5C 107.995,169.934 108.828,169.267 109.5,168.5 Z M 223.5,175.5 C 227.294,176.445 228.794,178.779 228,182.5C 219.816,186.599 212.482,191.932 206,198.5C 203.584,201.663 201.418,204.996 199.5,208.5C 193.873,209.703 191.707,207.37 193,201.5C 200.022,188.966 210.189,180.299 223.5,175.5 Z M 86.5,203.5 C 92.6703,206.798 99.0036,209.965 105.5,213C 111.746,214.541 118.079,215.541 124.5,216C 127.955,217.903 128.288,220.237 125.5,223C 109.778,225.317 95.9443,221.15 84,210.5C 82.9164,207.341 83.7498,205.008 86.5,203.5 Z M 159.5,210.5 C 178.636,210.801 187.469,220.467 186,239.5C 181.387,251.725 172.554,257.225 159.5,256C 148.313,252.643 141.98,245.143 140.5,233.5C 142.183,221.831 148.516,214.164 159.5,210.5 Z M 224.5,212.5 C 230.842,212.334 237.175,212.5 243.5,213C 249.167,217.021 248.667,220.187 242,222.5C 235.479,221.18 228.979,221.347 222.5,223C 217.048,224.893 211.715,227.06 206.5,229.5C 201.381,227.485 200.715,224.651 204.5,221C 210.877,217.27 217.544,214.437 224.5,212.5 Z M 118.5,237.5 C 124,236.831 126.167,239.165 125,244.5C 112.851,253.245 99.351,256.412 84.5,254C 79.616,251.473 79.2827,248.473 83.5,245C 93.0283,246.205 102.362,245.205 111.5,242C 114.239,240.974 116.572,239.474 118.5,237.5 Z M 203.5,242.5 C 216.972,242.047 229.305,245.547 240.5,253C 242.543,254.708 244.21,256.708 245.5,259C 244.556,261.559 242.722,263.059 240,263.5C 229.328,255.164 217.161,250.998 203.5,251C 199.893,248.303 199.893,245.47 203.5,242.5 Z M 129.5,257.5 C 132.665,257.752 134.665,259.418 135.5,262.5C 128.629,276.371 117.963,286.038 103.5,291.5C 99.6766,290.533 98.1766,288.199 99,284.5C 107.68,280.657 115.346,275.324 122,268.5C 124.51,264.805 127.01,261.138 129.5,257.5 Z M 192.5,261.5 C 206.78,268.447 216.447,279.447 221.5,294.5C 220.161,298.171 217.827,299.004 214.5,297C 209.191,284.689 200.691,275.189 189,268.5C 188.176,265.16 189.343,262.827 192.5,261.5 Z M 148.5,270.5 C 150.903,270.393 152.736,271.393 154,273.5C 155.412,288.192 151.412,301.192 142,312.5C 137.777,315.147 134.944,313.98 133.5,309C 142.023,298.768 146.19,286.935 146,273.5C 146.698,272.309 147.531,271.309 148.5,270.5 Z M 170.5,271.5 C 172.722,271.178 174.556,271.845 176,273.5C 185.076,286.775 187.242,300.941 182.5,316C 179.975,316.896 177.808,316.396 176,314.5C 177.246,300.729 174.413,287.895 167.5,276C 168.315,274.357 169.315,272.857 170.5,271.5 Z M 270.5,309.5 C 272.903,309.393 274.736,310.393 276,312.5C 280.708,332.034 284.374,351.701 287,371.5C 285.829,372.893 284.329,373.727 282.5,374C 267.027,377.295 251.527,380.461 236,383.5C 230.275,382.539 229.108,379.706 232.5,375C 246.773,371.745 261.106,368.745 275.5,366C 276.428,365.612 277.095,364.945 277.5,364C 273.42,346.606 270.253,329.106 268,311.5C 268.995,310.934 269.828,310.267 270.5,309.5 Z M 93.5,346.5 C 97.1816,345.725 99.6816,347.059 101,350.5C 104.619,366.759 107.785,383.093 110.5,399.5C 125.226,397.222 139.892,394.555 154.5,391.5C 159.948,391.898 161.282,394.398 158.5,399C 141.002,403.5 123.336,406.833 105.5,409C 103.396,406.958 102.229,404.458 102,401.5C 98.5639,384.819 95.0639,368.153 91.5,351.5C 91.9024,349.7 92.5691,348.033 93.5,346.5 Z"/></g>
<g><path style="opacity:1" fill="#d3cd5d" d="M 345.5,37.5 C 349.673,38.0436 353.673,39.2103 357.5,41C 359.261,44.4662 358.261,46.6329 354.5,47.5C 351.088,46.9804 347.755,46.1471 344.5,45C 342.315,42.3221 342.649,39.8221 345.5,37.5 Z"/></g>
<g><path style="opacity:1" fill="#d3cd5d" d="M 361.5,42.5 C 367.016,42.4734 368.349,44.64 365.5,49C 360.57,49.427 359.237,47.2604 361.5,42.5 Z"/></g>
<g><path style="opacity:1" fill="#d3cd5d" d="M 372.5,43.5 C 376.19,44.5075 379.857,45.6742 383.5,47C 385.572,51.0832 384.405,53.2499 380,53.5C 376.681,53.2121 373.515,52.3788 370.5,51C 368.84,47.7773 369.506,45.2773 372.5,43.5 Z"/></g>
<g><path style="opacity:1" fill="#d3cd5d" d="M 358.5,51.5 C 360.527,51.3379 362.527,51.5045 364.5,52C 365.577,56.5778 365.077,61.0778 363,65.5C 359.573,67.2856 357.073,66.4522 355.5,63C 356.582,59.1699 357.582,55.3365 358.5,51.5 Z"/></g>
<g><path style="opacity:1" fill="#786a46" d="M 295.5,71.5 C 298.874,71.6744 302.207,72.1744 305.5,73C 367.099,99.4675 428.432,126.467 489.5,154C 497.225,161.401 499.392,170.235 496,180.5C 451.333,283.167 406.667,385.833 362,488.5C 355.095,497.555 346.261,500.722 335.5,498C 284.833,476 234.167,454 183.5,432C 221.317,423.502 259.317,415.502 297.5,408C 313.028,403.468 321.695,393.135 323.5,377C 322.552,370.812 321.552,364.645 320.5,358.5C 359.242,350.088 380.242,326.088 383.5,286.5C 381.668,253.649 365.668,230.815 335.5,218C 330.655,215.964 325.655,214.964 320.5,215C 342.122,238.443 347.622,265.277 337,295.5C 331.757,307.301 324.09,317.301 314,325.5C 301.838,270.357 290.838,215.024 281,159.5C 288.091,143.655 295.424,127.988 303,112.5C 316.224,117.862 329.391,123.362 342.5,129C 348.999,129.852 350.666,127.519 347.5,122C 331.831,114.777 315.998,107.944 300,101.5C 298.605,101.78 297.438,102.447 296.5,103.5C 290.159,117.534 283.826,131.534 277.5,145.5C 274.499,131.496 271.499,117.496 268.5,103.5C 271.667,96.5 274.833,89.5 278,82.5C 282.594,76.632 288.427,72.9654 295.5,71.5 Z M 418.5,153.5 C 435.756,159.878 452.589,167.212 469,175.5C 462.465,194.753 454.632,213.586 445.5,232C 440.502,233.33 438.336,231.496 439,226.5C 445.638,211.391 452.138,196.225 458.5,181C 445.282,173.894 431.615,167.56 417.5,162C 414.83,158.838 415.163,156.005 418.5,153.5 Z M 359.5,410.5 C 364.501,409.671 366.668,411.671 366,416.5C 358.543,434.219 350.71,451.719 342.5,469C 339.743,469.584 337.077,469.25 334.5,468C 319.898,462.031 305.565,455.531 291.5,448.5C 289.554,444.624 290.72,442.291 295,441.5C 309.131,447.233 323.131,453.233 337,459.5C 344.514,443.141 352.014,426.807 359.5,410.5 Z"/></g>
<g><path style="opacity:1" fill="#d3cd5d" d="M 469.5,331.5 C 472.881,330.888 475.214,332.054 476.5,335C 475.589,338.145 474.755,341.312 474,344.5C 471.925,346.648 469.592,346.982 467,345.5C 466.557,340.607 467.39,335.94 469.5,331.5 Z"/></g>
<g><path style="opacity:1" fill="#d3cd5d" d="M 448.5,343.5 C 452.964,343.598 457.297,344.431 461.5,346C 462.591,348.064 462.758,350.231 462,352.5C 461.107,353.081 460.107,353.415 459,353.5C 455.836,352.668 452.669,351.834 449.5,351C 447.163,348.806 446.83,346.306 448.5,343.5 Z"/></g>
<g><path style="opacity:1" fill="#d3cd5d" d="M 465.5,348.5 C 471.016,348.473 472.349,350.64 469.5,355C 464.57,355.427 463.237,353.26 465.5,348.5 Z"/></g>
<g><path style="opacity:1" fill="#d3cd5d" d="M 474.5,350.5 C 479.046,350.268 483.379,351.101 487.5,353C 489.796,355.838 489.296,358.338 486,360.5C 482.12,359.57 478.286,358.404 474.5,357C 473.232,354.837 473.232,352.67 474.5,350.5 Z"/></g>
<g><path style="opacity:1" fill="#d3cd5d" d="M 463.5,357.5 C 466.885,356.79 469.219,357.956 470.5,361C 469.717,364.632 468.551,368.132 467,371.5C 462.917,373.572 460.75,372.405 460.5,368C 460.691,364.179 461.691,360.679 463.5,357.5 Z"/></g>
<g><path style="opacity:1" fill="#d3cd5d" d="M 451.5,419.5 C 454.807,441.138 467.474,453.471 489.5,456.5C 467.671,459.995 455.337,472.662 452.5,494.5C 451.122,484.743 447.288,476.077 441,468.5C 433.368,461.935 424.535,457.935 414.5,456.5C 436.557,453.776 448.89,441.443 451.5,419.5 Z"/></g>
<g><path style="opacity:1" fill="#d3cd5d" d="M 39.5,456.5 C 41.5273,456.338 43.5273,456.505 45.5,457C 46.5766,461.578 46.0766,466.078 44,470.5C 40.5731,472.286 38.0731,471.452 36.5,468C 37.5823,464.17 38.5823,460.337 39.5,456.5 Z"/></g>
<g><path style="opacity:1" fill="#d3cd5d" d="M 147.5,456.5 C 164.844,455.004 171.677,462.67 168,479.5C 161.819,488.83 153.652,490.996 143.5,486C 137.067,480.435 135.233,473.602 138,465.5C 140.406,461.592 143.572,458.592 147.5,456.5 Z M 150.5,464.5 C 157.503,464.339 161.003,467.672 161,474.5C 158.983,479.924 155.15,481.758 149.5,480C 142.894,474.381 143.227,469.214 150.5,464.5 Z"/></g>
<g><path style="opacity:1" fill="#d3cd5d" d="M 19.5,469.5 C 23.9639,469.598 28.2972,470.431 32.5,472C 34.3946,475.733 33.3946,478.233 29.5,479.5C 26.5289,478.565 23.5289,477.732 20.5,477C 18.2854,474.758 17.9521,472.258 19.5,469.5 Z"/></g>
<g><path style="opacity:1" fill="#d3cd5d" d="M 36.5,473.5 C 41.9754,473.44 43.3087,475.606 40.5,480C 39.1011,480.595 37.7678,480.428 36.5,479.5C 35.3058,477.484 35.3058,475.484 36.5,473.5 Z"/></g>
<g><path style="opacity:1" fill="#d3cd5d" d="M 45.5,475.5 C 50.0345,475.267 54.3678,476.1 58.5,478C 60.5717,482.083 59.405,484.25 55,484.5C 50.3204,484.553 46.4871,482.886 43.5,479.5C 44.1799,478.14 44.8466,476.807 45.5,475.5 Z"/></g>
<g><path style="opacity:1" fill="#d3cd5d" d="M 34.5,482.5 C 36.1992,482.34 37.8659,482.506 39.5,483C 40.5766,487.578 40.0766,492.078 38,496.5C 34.6504,499.219 32.1504,498.552 30.5,494.5C 31.2444,490.267 32.5777,486.267 34.5,482.5 Z"/></g>
</svg>
